<svg id="Layer_1" data-name="Layer 1" xmlns="http://www.w3.org/2000/svg" viewBox="0 0 200 200"><defs><style>.cls-1{fill:#fff;}.cls-2{fill:#ff595a;}</style></defs><title>EBA</title><circle id="_Path_" data-name="&lt;Path&gt;" cx="100" cy="100" r="90"/><g id="_Group_" data-name="&lt;Group&gt;"><path id="_Compound_Path_" data-name="&lt;Compound Path&gt;" class="cls-1" d="M52.83,70.63h-4.4V69.54H63.17a15,15,0,0,1,5.89.78,6.6,6.6,0,0,1,4.27,6.11c0,5-5.88,6.28-7.8,6.67v.09c4.44.7,8.81,2.7,8.81,7.33,0,2.13-1.31,5.62-5.8,7a17.88,17.88,0,0,1-5.54.57H48.43V97h4.4Zm5.06,0v12h3.93c4.1,0,6.19-.87,6.19-6.45s-2.53-5.54-5.76-5.54Zm0,13.08V97h4c3.31,0,6.76,0,6.76-6.81,0-5.41-2.53-6.5-6.9-6.5Z"/><path id="_Compound_Path_2" data-name="&lt;Compound Path&gt;" class="cls-1" d="M87.07,86.37c0-3.27-.09-4.31-2.79-4.31-1.57,0-3.45.34-3.45,1.3a1.14,1.14,0,0,0,.18.57,2.35,2.35,0,0,1,.39,1.35,1.78,1.78,0,0,1-1.88,1.79,1.88,1.88,0,0,1-2-2c0-2,2.27-4,7.55-4,6.15,0,6.1,2.39,6.1,5.06V94c0,1.52.05,2.57,1,2.57s1.22-.7,1.48-1h.52a3.41,3.41,0,0,1-3.62,3.1c-2.92,0-3.4-2.62-3.53-3.4-.83,1.09-2.62,3.4-5.84,3.4s-4.85-2-4.85-4.14c0-5.32,7.81-5.76,10.69-5.94Zm0,3.14c-5.76.22-6.45,2-6.45,4.19s1.48,3,2.48,3a4.24,4.24,0,0,0,3.49-2.27,4.65,4.65,0,0,0,.48-2.61Z"/><path id="_Compound_Path_3" data-name="&lt;Compound Path&gt;" class="cls-1" d="M107.18,85.94h-.88c-.61-2.53-2-4.15-4.75-4.15-2.31,0-3.84,1.44-3.84,2.84,0,1.7,1.7,2.05,4.45,2.4,1.74.22,6.37.87,6.37,5.8a5.63,5.63,0,0,1-5.76,5.8,6.87,6.87,0,0,1-4.67-2l-1.48,1.26h-.74V91.65h.74a12.7,12.7,0,0,0,1.75,3.71,5.29,5.29,0,0,0,4.4,2.31c2,0,4.32-1.48,4.32-3.49s-1.35-2.31-5.1-2.88c-1.84-.26-6-.91-6-5.32a5.25,5.25,0,0,1,5.54-5.15,5.39,5.39,0,0,1,4.1,1.62,5.37,5.37,0,0,0,.87-1.27h.66Z"/><path id="_Compound_Path_4" data-name="&lt;Compound Path&gt;" class="cls-1" d="M117.56,81.36h5.06v1.09h-5.06V93c0,2.62,0,4,2,4a3.67,3.67,0,0,0,3.4-2.8h.92c-.22.92-1,4.15-5.93,4.15-4.5,0-4.5-2.79-4.5-5.63V82.45h-3.79V81.36h3.79v-4.5a20.87,20.87,0,0,0,4.15-.34Z"/><path id="_Compound_Path_5" data-name="&lt;Compound Path&gt;" class="cls-1" d="M131.56,97h2.79v1.09h-9.9V97h3V82.45h-3V81.36h3a35.72,35.72,0,0,0,4.1-.31Zm.35-24.17a2.32,2.32,0,0,1-4.63,0,2.32,2.32,0,0,1,4.63,0Z"/><path id="_Compound_Path_6" data-name="&lt;Compound Path&gt;" class="cls-1" d="M152.93,89.51a9,9,0,0,1-8.9,9.12,8.9,8.9,0,0,1,.13-17.8A8.56,8.56,0,0,1,152.93,89.51Zm-12.08-6.1c-.66,1.13-.7,2.09-.7,6.32s.09,5.11.7,6.33a4.17,4.17,0,0,0,6.58,0c.61-1.18.7-2.18.7-6.37s-.09-5.11-.7-6.28a3.53,3.53,0,0,0-3.31-1.62A3.67,3.67,0,0,0,140.85,83.41Z"/><path id="_Compound_Path_7" data-name="&lt;Compound Path&gt;" class="cls-1" d="M157.16,82.45h-3V81.36h1.92a41.26,41.26,0,0,0,5.23-.31V85.2h.09c.7-1.36,2.35-4.37,6.19-4.37a4.88,4.88,0,0,1,4.36,2.4c.79,1.4.79,3.62.79,4.84v9H176v1.09H165.75V97h2.84V86.37c0-2.79-.05-4.31-1.92-4.31a4.8,4.8,0,0,0-3.54,1.87,9.2,9.2,0,0,0-1.83,5.93V97h2.79v1.09h-9.94V97h3Z"/></g><g id="_Group_2" data-name="&lt;Group&gt;"><path id="_Compound_Path_8" data-name="&lt;Compound Path&gt;" class="cls-2" d="M58.29,122.89h2.57c1.92,0,4.62,0,4.88-5.36h1.09v12.08H65.74c-.26-4.93-2-5.63-4.88-5.63H58.29v13h5.8c5.62,0,8.5-1.74,9.11-8.46h1.09L74,138.11H48.69V137h4.54V110.63H48.69v-1.09H73l.48,7.64H72.37c-.82-4.89-2.92-6.55-8-6.55H58.29Z"/><path id="_Compound_Path_9" data-name="&lt;Compound Path&gt;" class="cls-2" d="M83.06,110.63H78.65v-1.09H93.39a14.84,14.84,0,0,1,5.89.79,6.57,6.57,0,0,1,4.28,6.1c0,5-5.89,6.29-7.81,6.68v.09c4.45.69,8.81,2.7,8.81,7.32,0,2.14-1.31,5.63-5.8,7a17.87,17.87,0,0,1-5.54.56H78.65V137h4.41Zm5.06,0v12H92c4.1,0,6.2-.87,6.2-6.46s-2.53-5.54-5.76-5.54Zm0,13.09V137h4c3.31,0,6.76,0,6.76-6.8,0-5.41-2.53-6.5-6.89-6.5Z"/><path id="_Compound_Path_10" data-name="&lt;Compound Path&gt;" class="cls-2" d="M113.81,129.21,110.88,137h5.28v1.09H105.82V137h3.93l10.42-28.13h.66l10,28.13h3.83v1.09h-13.6V137h4.62l-2.79-7.81Zm8.67-1.08-4-11.43h-.09l-4.18,11.43Z"/></g><path id="_Compound_Path_11" data-name="&lt;Compound Path&gt;" class="cls-1" d="M40.36,116.5q0-6.89-1.87-10.63t-7.49-5q5.67-1.28,7.49-5t1.87-10.63V64.86q0-10.09,6.08-13h-.31a13.65,13.65,0,0,0-10.05,3.91,10.37,10.37,0,0,0-2.67,5.51,42.8,42.8,0,0,0-.6,7.75V88.18a30.19,30.19,0,0,1-.47,6.1,6.73,6.73,0,0,1-2.58,3.9,10,10,0,0,1-5.43,2.72,9.68,9.68,0,0,1,5.43,2.67,6.76,6.76,0,0,1,2.58,3.9,30.19,30.19,0,0,1,.47,6.1v19.14a42.8,42.8,0,0,0,.6,7.75A10.37,10.37,0,0,0,36.08,146a13.65,13.65,0,0,0,10.05,3.91h.31q-6.07-2.9-6.08-13V116.5Z"/></svg>