<?xml version="1.0" encoding="utf-8"?>
<!-- Generator: Adobe Illustrator 18.1.1, SVG Export Plug-In . SVG Version: 6.00 Build 0)  -->
<!DOCTYPE svg PUBLIC "-//W3C//DTD SVG 1.1//EN" "http://www.w3.org/Graphics/SVG/1.1/DTD/svg11.dtd">
<svg version="1.1" id="Layer_1" xmlns="http://www.w3.org/2000/svg" xmlns:xlink="http://www.w3.org/1999/xlink" x="0px" y="0px"
	 viewBox="0 0 298.2 193.1" enable-background="new 0 0 298.2 193.1" xml:space="preserve">
<polygon fill="#F7941E" points="188.9,117.8 298,117.8 298,136.4 180.5,136.4 "/>
<polygon fill="#F7941E" points="172.5,117.8 0,117.8 0,136.4 164.2,136.4 "/>
<path fill="#00456E" d="M0-0.1h82.4v21.6H27v18.1h50.7v20.9H27v19.7h56.9v23.2H0V-0.1z"/>
<path fill="#00456E" d="M99.2-0.1h48.4C165.5-0.3,185,4.3,185,25.9c0,9.3-5.5,16.8-13.6,20.9c11,3.2,17.8,12.8,17.8,24.5
	c0,24.6-18.1,32.2-40.3,32.2H99.2V-0.1z M126.2,40.7h20.9c4.6,0,11-2.5,11-9.9c0-7.5-5.4-10-11-10h-20.9V40.7z M126.2,81.8h21.6
	c8.5,0,14.5-3,14.5-11.6c0-9.1-6.4-12.2-14.5-12.2h-21.6V81.8z"/>
<path fill="#00456E" d="M232-0.1h27.4L298,103.4h-28.1l-6.4-18.5h-36.1l-6.5,18.5h-27.7L232-0.1z M233.7,64.9h23.5l-11.4-36.2h-0.3
	L233.7,64.9z"/>
<polygon fill="#828386" points="0,153.7 10.7,153.7 10.7,156.4 3.2,156.4 3.2,159.7 9.9,159.7 9.9,162.1 3.2,162.1 3.2,165.6 
	10.8,165.6 10.8,168.4 0,168.4 "/>
<polygon fill="#828386" points="13.4,153.7 16.5,153.7 23,163.3 23,153.7 26,153.7 26,168.4 23,168.4 16.5,158.7 16.5,168.4 
	13.4,168.4 "/>
<polygon fill="#828386" points="33,156.5 28.1,156.5 28.1,153.7 41,153.7 41,156.5 36.1,156.5 36.1,168.4 33,168.4 "/>
<path fill="#828386" d="M49.5,160.6c1.7,0,2.5-0.9,2.5-2.2c0-1.3-0.8-2.2-2.5-2.2h-3.3v4.4H49.5z M43.1,153.7h6.5
	c4.2,0,5.7,2.3,5.7,4.7c0,1.7-0.9,3.3-2.7,4.1l2.8,6h-3.4l-2.3-5.5h-3.4v5.5h-3.2V153.7z"/>
<polygon fill="#828386" points="57.9,153.7 68.6,153.7 68.6,156.4 61,156.4 61,159.7 67.8,159.7 67.8,162.1 61,162.1 61,165.6 
	68.7,165.6 68.7,168.4 57.9,168.4 "/>
<path fill="#828386" d="M77.4,160.6c1.7,0,2.5-0.9,2.5-2.2c0-1.3-0.8-2.2-2.5-2.2h-3v4.4H77.4z M71.3,153.7h6.2
	c4.2,0,5.7,2.3,5.7,4.7c0,2.3-1.5,4.7-5.7,4.7h-3v5.3h-3.2V153.7z"/>
<path fill="#828386" d="M92.1,160.6c1.7,0,2.5-0.9,2.5-2.2c0-1.3-0.8-2.2-2.5-2.2h-3.3v4.4H92.1z M85.6,153.7h6.5
	c4.2,0,5.7,2.3,5.7,4.7c0,1.7-0.9,3.3-2.7,4.1l2.8,6h-3.4l-2.3-5.5h-3.4v5.5h-3.2V153.7z"/>
<polygon fill="#828386" points="100.4,153.7 111.2,153.7 111.2,156.4 103.6,156.4 103.6,159.7 110.3,159.7 110.3,162.1 103.6,162.1 
	103.6,165.6 111.2,165.6 111.2,168.4 100.4,168.4 "/>
<polygon fill="#828386" points="113.9,153.7 116.9,153.7 123.4,163.3 123.4,153.7 126.4,153.7 126.4,168.4 123.4,168.4 116.9,158.7 
	116.9,168.4 113.9,168.4 "/>
<path fill="#828386" d="M140,157.8l-5.9,7.4c0.7,0.5,1.5,0.7,2.5,0.7c2.6,0,4.4-2,4.4-5C140.9,159.7,140.5,158.6,140,157.8
	 M133,164.2l5.9-7.4c-0.7-0.5-1.5-0.7-2.5-0.7c-2.6,0-4.4,2-4.4,4.9C132.1,162.3,132.4,163.4,133,164.2 M136.5,153.4
	c1.6,0,3,0.4,4.2,1.1l1.3-1.6l1.3,1.1l-1.3,1.6c1.4,1.3,2.2,3.2,2.2,5.5c0,4.5-3.2,7.6-7.6,7.6c-1.6,0-3-0.4-4.2-1.1l-1.3,1.6
	l-1.3-1l1.3-1.6c-1.4-1.3-2.2-3.3-2.2-5.5C128.9,156.6,132,153.4,136.5,153.4"/>
<path fill="#828386" d="M152.9,160.6c1.7,0,2.5-0.9,2.5-2.2c0-1.3-0.8-2.2-2.5-2.2h-3.3v4.4H152.9z M146.5,153.7h6.5
	c4.2,0,5.7,2.3,5.7,4.7c0,1.7-0.9,3.3-2.7,4.1l2.8,6h-3.4l-2.3-5.5h-3.4v5.5h-3.2V153.7z"/>
<polygon fill="#828386" points="161.3,153.7 171.9,153.7 171.9,156.4 164.5,156.4 164.5,159.9 170.9,159.9 170.9,162.5 164.5,162.5 
	164.5,168.4 161.3,168.4 "/>
<path fill="#828386" d="M181.1,165.9c2.6,0,4.4-2,4.4-5c0-2.9-1.8-4.9-4.4-4.9c-2.6,0-4.4,2-4.4,4.9
	C176.8,164,178.6,165.9,181.1,165.9 M181.1,153.4c4.5,0,7.6,3.2,7.6,7.6c0,4.5-3.2,7.6-7.6,7.6c-4.5,0-7.6-3.2-7.6-7.6
	C173.5,156.6,176.7,153.4,181.1,153.4"/>
<path fill="#828386" d="M197.6,160.6c1.7,0,2.5-0.9,2.5-2.2c0-1.3-0.8-2.2-2.5-2.2h-3.3v4.4H197.6z M191.2,153.7h6.5
	c4.2,0,5.7,2.3,5.7,4.7c0,1.7-0.9,3.3-2.7,4.1l2.8,6H200l-2.3-5.5h-3.4v5.5h-3.2V153.7z"/>
<polygon fill="#828386" points="206,153.7 216.7,153.7 216.7,156.4 209.1,156.4 209.1,159.7 215.9,159.7 215.9,162.1 209.1,162.1 
	209.1,165.6 216.8,165.6 216.8,168.4 206,168.4 "/>
<polygon fill="#828386" points="219.4,153.7 222.4,153.7 229,163.3 229,153.7 232,153.7 232,168.4 229,168.4 222.4,158.7 
	222.4,168.4 219.4,168.4 "/>
<rect x="235" y="153.7" fill="#828386" width="3.2" height="14.7"/>
<polygon fill="#828386" points="241.1,153.7 244.1,153.7 250.7,163.3 250.7,153.7 253.7,153.7 253.7,168.4 250.7,168.4 244.1,158.7 
	244.1,168.4 241.1,168.4 "/>
<path fill="#828386" d="M263.8,153.4c2.2,0,3.9,0.7,5.4,1.8l-1.7,2.1c-1.1-0.8-2.2-1.3-3.7-1.3c-2.8,0-4.5,2-4.5,4.8
	c0,3.1,1.7,5,4.5,5c1,0,1.9-0.2,2.6-0.6v-2.9h-3.3v-2.2h6.2v6.7c-1.5,1.1-3.4,1.7-5.6,1.7c-4.7,0-7.6-3.2-7.6-7.7
	C256.1,156.7,259.1,153.4,263.8,153.4"/>
<polygon fill="#828386" points="272.1,153.7 282.9,153.7 282.9,156.4 275.3,156.4 275.3,159.7 282,159.7 282,162.1 275.3,162.1 
	275.3,165.6 282.9,165.6 282.9,168.4 272.1,168.4 "/>
<polygon fill="#828386" points="285.6,153.7 288.6,153.7 295.2,163.3 295.2,153.7 298.2,153.7 298.2,168.4 295.2,168.4 288.6,158.7 
	288.6,168.4 285.6,168.4 "/>
<path fill="#828386" d="M6.4,190.3c1.4,0,2.3-0.7,2.3-1.9c0-1.2-0.9-1.9-2.3-1.9H3.2v3.8H6.4z M5.9,184.3c1.5,0,2.2-0.7,2.2-1.8
	c0-1-0.8-1.8-2.2-1.8H3.2v3.6H5.9z M0,178.1h6.2c3.6,0,5.2,1.7,5.2,4c0,1.5-0.8,2.5-2.2,3.1c1.6,0.5,2.8,1.6,2.8,3.4
	c0,2.7-2.1,4.2-5.4,4.2H0V178.1z"/>
<polygon fill="#828386" points="18,186.9 12.5,178.1 16.2,178.1 19.6,183.8 19.6,183.8 23.1,178.1 26.7,178.1 21.2,186.9 
	21.2,192.8 18,192.8 "/>
<path fill="#828386" d="M34.5,177.9c2.2,0,3.9,0.7,5.4,1.8l-1.7,2.1c-1.1-0.8-2.2-1.3-3.7-1.3c-2.8,0-4.5,2-4.5,4.8
	c0,3.1,1.7,5,4.5,5c1,0,1.9-0.2,2.6-0.6v-2.9h-3.3v-2.2H40v6.7c-1.5,1.1-3.4,1.7-5.6,1.7c-4.7,0-7.6-3.2-7.6-7.7
	C26.8,181.2,29.8,177.9,34.5,177.9"/>
<path fill="#828386" d="M50,177.9c2.2,0,3.9,0.7,5.4,1.8l-1.7,2.1c-1.1-0.8-2.2-1.3-3.7-1.3c-2.8,0-4.5,2-4.5,4.8c0,3.1,1.7,5,4.5,5
	c1,0,1.9-0.2,2.6-0.6v-2.9h-3.3v-2.2h6.2v6.7c-1.5,1.1-3.4,1.7-5.6,1.7c-4.7,0-7.6-3.2-7.6-7.7C42.3,181.2,45.3,177.9,50,177.9"/>
<path fill="#828386" d="M70.5,190.4c2.6,0,4.4-2,4.4-5c0-2.9-1.8-4.9-4.4-4.9c-2.6,0-4.4,2-4.4,4.9C66.1,188.4,68,190.4,70.5,190.4
	 M70.5,177.9c4.5,0,7.6,3.2,7.6,7.6c0,4.5-3.2,7.7-7.6,7.7c-4.5,0-7.6-3.2-7.6-7.7C62.9,181,66.1,177.9,70.5,177.9"/>
<path fill="#828386" d="M87.6,177.9c2.2,0,3.9,0.7,5.4,1.8l-1.7,2.1c-1.1-0.8-2.2-1.3-3.7-1.3c-2.8,0-4.5,2-4.5,4.8
	c0,3.1,1.7,5,4.5,5c1,0,1.9-0.2,2.6-0.6v-2.9H87v-2.2h6.2v6.7c-1.5,1.1-3.4,1.7-5.6,1.7c-4.7,0-7.6-3.2-7.6-7.7
	C80,181.2,83,177.9,87.6,177.9"/>
<path fill="#828386" d="M105.2,187.6h4l-2-6h0L105.2,187.6z M105.4,178.1h3.6l5.3,14.7h-3.4l-0.9-2.8h-5.6l-0.9,2.8h-3.4
	L105.4,178.1z"/>
<polygon fill="#828386" points="116.2,178.1 119.3,178.1 125.8,187.8 125.8,178.1 128.8,178.1 128.8,192.8 125.8,192.8 119.3,183.2 
	119.3,192.8 116.2,192.8 "/>
<polygon fill="#828386" points="131.8,178.1 135,178.1 135,190.1 142.3,190.1 142.3,192.8 131.8,192.8 "/>
<polygon fill="#828386" points="144.5,178.1 155.3,178.1 155.3,180.9 147.7,180.9 147.7,184.1 154.4,184.1 154.4,186.6 147.7,186.6 
	147.7,190.1 155.4,190.1 155.4,192.8 144.5,192.8 "/>
<path fill="#828386" d="M164.8,177.9c2.2,0,3.9,0.7,5.4,1.8l-1.7,2.1c-1.1-0.8-2.2-1.3-3.7-1.3c-2.8,0-4.5,2-4.5,4.8
	c0,3.1,1.7,5,4.5,5c1,0,1.9-0.2,2.6-0.6v-2.9h-3.3v-2.2h6.2v6.7c-1.5,1.1-3.4,1.7-5.6,1.7c-4.7,0-7.6-3.2-7.6-7.7
	C157.2,181.2,160.1,177.9,164.8,177.9"/>
<path fill="#828386" d="M180.3,177.9c2.2,0,3.9,0.7,5.4,1.8l-1.7,2.1c-1.1-0.8-2.2-1.3-3.7-1.3c-2.8,0-4.5,2-4.5,4.8
	c0,3.1,1.7,5,4.5,5c1,0,1.9-0.2,2.6-0.6v-2.9h-3.3v-2.2h6.2v6.7c-1.5,1.1-3.4,1.7-5.6,1.7c-4.7,0-7.6-3.2-7.6-7.7
	C172.6,181.2,175.6,177.9,180.3,177.9"/>
<polygon fill="#FFFFFF" points="188.9,117.8 180.5,136.3 164.2,136.3 172.6,117.9 "/>
</svg>
