<?xml version="1.0" encoding="utf-8"?>
<!-- Generator: Adobe Illustrator 22.0.1, SVG Export Plug-In . SVG Version: 6.00 Build 0)  -->
<!DOCTYPE svg PUBLIC "-//W3C//DTD SVG 1.1//EN" "http://www.w3.org/Graphics/SVG/1.1/DTD/svg11.dtd">
<svg version="1.1" id="Layer_1" xmlns="http://www.w3.org/2000/svg" xmlns:xlink="http://www.w3.org/1999/xlink" x="0px" y="0px"
	 viewBox="0 0 349 193.3" style="enable-background:new 0 0 349 193.3;" xml:space="preserve">
<style type="text/css">
	.st0{fill:#FFFFFF;}
	.st1{fill:#296D37;}
	.st2{fill:#EE7B27;}
</style>
<polygon class="st0" points="152.7,130.3 196.7,130.3 205.4,102 190,102 194.9,86.2 208,86.2 216.4,59 203.3,59 207.2,46.3 
	221.2,46.3 230,18.1 187.4,18.1 "/>
<path class="st1" d="M190.1,21.7h35l-6.5,21h-14l-6.2,19.9h13.1l-6.2,20h-13.1l-7.1,23.1h15.4l-6.5,21h-36.4L190.1,21.7z"/>
<g>
	<path d="M158,56.4c-0.4-0.9-0.9-1.8-1-2.8c-0.2-1.8-0.7-3.6-1.5-5.3c-1.6-3.3-2-5.6,0-8.4c2.7-3.7,2.9-7.9,0.7-12.2
		c-2.9-5.7-9.7-8.6-15.3-11c-6.6-2.9-13.5-5-20.5-6.5c-13.8-3-28.1-3.7-42.1-3.6c-7,0.1-13.9,0.3-20.8,1c-0.3,0-0.5,0.1-0.8,0.1
		c-2.7,0.3-5.3,0.6-8,1.1c-2.7,0.4-5.3,0.9-7.9,1.6c-2.6,0.6-5.2,1.3-7.8,2.2C30.5,13.4,16.5,16.7,8.1,27c-0.4,0.5-1,2.2-1.2,2.9
		c-0.7,3-0.2,6.1,1.2,8.8c0.8,1.5,1.9,2.8,3,4.2c0.6,0.8,1.9,0.2,1.7-0.8l-0.4-2.2c0.2-0.1,0.2-0.1,0.3-0.2c0.6,0.6,1.3,1.1,1.9,1.7
		c2.1,2.4,4.1,4.8,6.3,7c6.5,6.4,13.2,12.6,19.9,18.8c0.4,0.3,0.8,0.8,1.2,0.9c2.8,0.5,4.5,2.6,6.3,4.5c2.5,2.7,3.2,6.3,4.7,10
		c-0.8-0.3-1.1-0.3-1.4-0.5c-4.7-1.7-9.3-3.3-14-5c-1.8-0.6-3.6-1.1-5.4-1.6c-1.4-0.3-2.8,0-3.8,1.1c-0.9,1-0.9,2.2-0.2,3.4
		c0.3,0.6,0.7,1.1,0.9,1.7c1.1,2.4,1.4,2.3-0.3,3.1c-2.2,1.1-3.1,4.6-1.6,6.4c1.2,1.4,2.6,2.8,4,4c2.4,2,5,3.8,7.5,5.7
		c0.3,0.3,0.6,0.6,1.3,1.3c-1.6,0-2.7,0-3.8,0c-1.6,0.1-3.6,2.2-3.2,3.5c0.4,1.7,1.4,3.2,3.1,4c3.2,1.5,6.3,3,9.4,4.6
		c1.7,0.8,1.7,1.1,0.7,2.8c-1.1,1.7-2.2,3.4-3.2,5.2c-1.4,2.6,0.5,5.6,3.4,5.9s5.7,0.8,8.6,1.3c1.7,0.3,1.7,0.4,1.1,1.8
		c-0.6,1.3-0.3,2.2,0.5,3.2c1.1,1.5,2.6,1.9,4.3,1.3c2.3-0.7,4.6-1.5,6.8-2.3c1.7-0.6,1.7-0.7,2.6,0.9c0.4,0.6,0.9,1.4,1.5,1.5
		c2.1,0.1,4.4,0.4,6.3-0.2c2.5-0.8,4.9-2.1,7-4c1.8-1.8,3.9-3.1,6.8-2.8c1.9,0.2,3.8,0.1,5.7,0c2.4,0,4.5-0.7,6.3-2.5
		c4.2-4.3,8.2-8.7,12-13.3c0.5-0.6,1.4-1.1,2.1-1.4c1.5-0.6,3.1-0.9,4.6-1.5c1.1-0.4,1.7-0.1,2.4,0.8c1.1,1.5,2.6,1.6,3.9,0.4
		c1.7-1.6,3.4-3.2,4.9-5c0.9-1.1,1.7-1.8,3.2-1.8c1.8,0,3.1-1.4,3.1-3.2c0-1.4,0.9-2.1,1.7-2.9c0.6-0.6,1-0.8,1.7,0.1
		c1.2,1.7,2.9,1.8,4.1,0.2c0.7-0.9,1.1-2.2,1.3-3.4c0.2-1.5,0-3.1,0.1-4.6c0-0.7,0.1-1.5,0.4-2.1c0.8-1.7,1.7-3.4,2.5-5.1
		c0.5-1,0.9-1.2,2-0.6c2.2,1.3,4.2,0,4.4-2.5c0.2-2-0.4-3.8-1-5.6c-0.3-0.9-0.4-1.6,0.8-1.1c1.4,0.5,2.3-0.1,2.7-1.4
		c0.3-0.7,0.4-1.5,0.5-2.3C161.3,65.5,159.8,60.9,158,56.4z M34.3,20.9c3.3-1,6.6-1.9,9.9-2.7c0.4-0.1,1.1,0.3,1.4,0.6
		C51.4,26,55.7,34,58.7,42.6c0,0.1-0.1,0.3-0.2,0.6c-1.1-0.9-2.2-1.6-3.2-2.5c-3.3-2.8-6.6-5.7-9.9-8.6c-3.7-3.2-7.5-6.3-11.2-9.4
		C32.8,21.7,32.7,21.4,34.3,20.9z M44.9,41.8c-0.3,0.3-0.3,0.8-0.5,1.7c-1.4-2.5-2.7-4.7-3.9-6.9c0.1-0.1,0.3-0.2,0.4-0.4
		c1.2,1,2.4,1.9,3.5,2.9C45.4,39.8,46,40.6,44.9,41.8z M13.3,31.4l1.1-1.1l6.6,9.1L13.3,31.4z M20.5,28.4c-0.8-0.8-0.8-1.3,0.3-1.8
		c1.6-0.8,3.3-1.6,4.9-2.4c1.1-0.6,1.6-0.1,2.1,0.8c1.7,3.1,3.4,6.2,5.1,9.4c1.2,2.3,2.5,4.6,3.7,6.9c0.3,0.5,0.5,1.1,0.7,1.7
		c-0.2,0.1-0.4,0.3-0.6,0.4c-3.3-2.9-6.6-5.7-9.8-8.6C24.7,32.7,22.6,30.5,20.5,28.4z M57.1,69.6c-0.1,0.8-0.4,1.1-1.2,0.7
		c-0.6-0.3-1.1-0.7-1.6-1.1c-3.2-2.6-6.4-5.3-9.7-7.8c-1.2-0.9-2.7-1.2-4-2.1C38,57.2,36,54.5,34,51.8c-0.7-0.9-1.2-2-1.7-3
		c-0.1-0.1-1.6-2.1-1.5-2.6c1.1,0.8,3.7,3.1,4.5,3.9c3,3.3,6.5,6,10.3,8.4c3.9,2.4,7.5,5,10.5,8.4C56.8,67.7,57.2,68.5,57.1,69.6z
		 M59.8,55.4c-0.2,0-0.4,0.1-0.7,0.1c-2.1-2.1-3.6-4.5-4.8-7.2c2.3,1,4,2.7,5.4,4.5C60.2,53.3,59.8,54.5,59.8,55.4z M64.6,41.4
		c-0.4,0-1-0.6-1.1-1c-0.7-1.8-1.2-3.7-1.8-5.5c0.1-0.2,0.3-0.3,0.4-0.5c1.3,1.3,2.7,2.6,4,4.1C66.6,39,65.4,41.4,64.6,41.4z
		 M70.4,33.5c-0.2,0.1-0.9-0.2-1.3-0.5c-2.5-2.3-5-4.5-7.3-6.9c-1.6-1.6-3.4-2.5-5.5-2.9c-0.4-0.1-0.9,0-1-0.3
		C54,21,52.8,19,51.4,16.8c3.7-0.5,7-1,10.3-1.5c1.4-0.2,2.7-0.3,4.1-0.4c0.7-0.1,1.1,0.2,1.5,1c2,4.5,4,9,6,13.6
		c0.1,0.3,0.3,0.8,0.2,1C72.5,31.5,71.5,32.5,70.4,33.5z M76.3,40.1c-1.4-1.4-2.9-2.9-4.3-4.3c-0.7-0.7-0.5-1.2,0-1.9
		c0.6-0.7,1.2-1.5,1.8-2.2c0.2,0.1,0.4,0.2,0.6,0.2c0.8,2.6,1.6,5.2,2.4,7.9C76.7,39.9,76.5,40,76.3,40.1z M83.1,22.2
		c-2.5-2.4-4.9-4.8-7.3-7.2c0.1-0.2,0.2-0.4,0.3-0.7c3.4-0.1,6.8-0.3,10.2-0.3c0.9,0,1.7,0.3,2.6,0.5c0.3,0.1,0.6,0.2,0.7,0.4
		c0.6,1.3,1.1,2.6,1.6,4c0.1,0.2-0.4,0.7-0.8,0.9c-2,0.9-4,1.8-6,2.6C84.1,22.5,83.4,22.5,83.1,22.2z M98.5,37.3
		c-4.5-4.6-9-9.1-13.7-13.8c2.2-0.9,4.4-1.9,6.7-2.8c0.2-0.1,0.9,0.5,1.1,0.9c1.4,3,2.8,6.1,4,9.2c0.8,2.1,1.5,4.2,2.2,6.3
		C98.8,37.1,98.7,37.2,98.5,37.3z M101.2,16.8c-0.4,0-0.7-0.6-1.4-1.3c3.1-0.4,5.7,0.6,8.3,0.8c0,0.2,0,0.3,0,0.5
		C105.8,16.8,103.5,16.9,101.2,16.8z M113,31c-2-2.6-4.2-5.1-6.3-7.6c-1.2-1.4-1.3-2.1,0.1-3.1c1.3-0.9,2.2-2.7,4.3-2.4
		c1.2,0.2,2.5,0.4,3.6,0.7c0.5,0.1,1.1,0.6,1.2,1.1c1.1,3.3,2.1,6.7,3.1,10c0.3,1,0.1,1.9-1.1,2.2c-0.1,0-0.2,0.2-0.4,0.2
		C115,33.3,114.7,33.1,113,31z M119.7,39.8c-1-1.3-2-2.5-2.9-3.8c-1-1.5-1-1.7,0.7-2.5c0.5-0.2,1.1-0.4,1.7-0.5
		c0.2,0,0.7,0.3,0.7,0.5c0.4,2.2,0.7,4.5,1.2,7.2C120.2,40.2,119.9,40.1,119.7,39.8z M128.4,21.7c-0.3-0.1-0.5-0.3-0.7-0.5
		s-0.2-0.5-0.2-0.7c0-0.1,0.4-0.3,0.5-0.2c2.6,1,5.4,1.8,7.8,3.1c0.8,0.4,1,2.1,1.5,3.5C134,25,131.2,23.4,128.4,21.7z M132.8,27.7
		c-0.5-0.9-1.2-1.7-1.9-2.6c0.2-0.2,0.3-0.4,0.5-0.5c2,1.4,4,2.7,5.9,4.2c0.3,0.2,0.3,0.9,0.5,1.3c-0.4,0-0.8,0.1-1.2,0
		C135,29.9,133.7,29.3,132.8,27.7z M139.5,37.3c-1.7-2.4-3.1-4.5-4.8-6.8C138.7,30.9,140,32.8,139.5,37.3z M140,97.9
		c0.4-1,0.9-2,1.4-3.1C142.4,96,142.3,96.3,140,97.9z M148.6,86.7c-0.8-3.7,0.7-7,2-10.8C152.8,80.4,150.3,83.4,148.6,86.7z
		 M153.6,40.8c-0.4-1.3-0.7-2-0.7-2.8c0-3.6-1.7-6.9-2.3-10.4c-0.3-1.6-1.5-2.5-2.7-3.2c-0.4-0.2-1.2,0-1.7,0.3
		c-0.4,0.2-0.6,0.8-1,1.5c-1.3-2.7-2.5-5.2-3.9-8.1c4.9,1.9,9,4.2,12.2,7.8c2.7,3.1,4,6.6,2.5,10.7
		C155.5,37.9,154.5,39.1,153.6,40.8z"/>
	<path class="st0" d="M154.9,62.4c-0.6,1.9-1.5,3.7-1.7,5.6c-0.1,1.3,0.7,2.7,1.1,4.1c0.7,2.1,1.6,4.2,2.3,6.4
		c0.3,0.8,0.4,1.7,0.3,2.6c-0.1,0.9-0.9,1.5-1.9,1.4c-0.9-0.1-1.7-0.3-1.8-1.5c-0.2-1.7-0.5-3.3-0.9-4.9c-0.2-0.9-0.7-1.8-1.1-3
		c-0.6,0.7-1.1,1-1.2,1.4c-0.9,2.7-1.7,5.4-2.6,8.1c-0.9,2.9-0.1,5.7,0.3,8.6c0.2,1.7,0.2,3.4,0,5c-0.1,0.8-0.6,1.7-1.2,2.2
		c-0.5,0.4-1.4,0.5-2,0.3c-0.4-0.2-0.8-1-0.9-1.5c-0.1-1.6,0-3.2-0.1-4.8c0-0.7,0-1.4,0-2.6c-1.6,2.4-2.9,4.3-4.1,6.2
		c-0.9,1.4-1,2.8-0.6,4.4c0.6,2.6-0.4,3.8-2.9,3.2c-1.4-0.3-1.8,0.6-2.4,1.3c-1.3,1.6-2.4,3.3-3.7,4.8c-0.4,0.5-1,0.9-1.5,1.2
		c-0.5,0.3-1.3,0.6-1.7,0.4c-0.8-0.4-1.7-1.2-1.3-2.3c0.7-1.7-0.1-3.3-0.1-5c0-0.4-0.5-0.9-0.9-1.1c-0.2-0.1-0.8,0.2-1,0.5
		c-3.7,4.6-8.2,8.5-11.7,13.3c-2.1,2.9-5,5.2-7.5,7.7c-0.7,0.7-1.4,1.3-2,2c-1.2,1.4-2.6,2-4.5,1.8s-3.8-0.4-5.7-0.4
		c-1.8,0-3.6,0.3-5.2,1.3c-1,0.6-2,1.3-2.8,2.1c-2.9,3.2-6.5,4.2-10.6,4c-1.3-0.1-1.8-0.7-2.1-1.7c-0.1-0.4-0.1-0.7-0.1-1.1
		c-0.1-0.5-0.2-1.1-0.4-1.6c-0.4,0.2-0.8,0.5-1.3,0.7c-2.9,1.4-5.7,3-8.9,3.6c-2.8,0.5-3.8-1.8-3.1-3.7c0.1-0.1,0.1-0.3,0.2-0.4
		c0.9-2.2,0.5-2.7-1.9-2.9c-3-0.2-6.1-0.6-9.1-0.9c-2.3-0.3-3.3-3.2-1.9-5.3c1.2-1.7,2.5-3.4,3.7-5.1c1.1-1.6,1.2-1.6-0.6-2.5
		c-3.2-1.6-6.5-3.2-9.7-4.9c-1.1-0.6-2.2-1.5-2.9-2.5c-1.3-1.6-0.3-3.6,1.8-3.7c2.6-0.1,5.2,0,7.9-0.4c-0.7-0.2-1.4-0.4-2-0.8
		c-2.9-1.6-5.6-3.4-8-5.6c-0.6-0.5-1.3-1-1.9-1.5c-1.5-1.5-3.1-2.9-4.5-4.4c-1.5-1.6-0.6-4.2,1.4-4.9c0.9-0.3,1.8-0.4,2.6-0.6
		c-0.9-1.6-1.9-3.2-2.8-4.8c-0.5-0.9-0.9-2-0.1-2.8c0.8-0.9,1.9-1.3,3.2-0.9c6.5,2,13.2,3.7,19.2,7.2c0.6,0.4,1.3,0.6,2.4,1
		c-0.1-1.5,0-2.7-0.3-3.7c-1.1-2.9-2.3-5.8-3.7-8.6c-0.6-1.1-1.6-2-2.6-2.9c-1.3-1.1-2.6-2.1-4.3-2.5c-1.4-0.4-1.9-1.4-3.1-2.3
		c-6-4.5-11.6-10.3-16.9-15.6c-4.5-4.6-8.8-9.5-13.1-14.4c-0.9-1-2.1-2.7-1.9-3.8c0.1-1.3,0.8-1.5,1.8-1.3c0.3,0,0.6,0.4,0.9,0.6
		c3.3,3.5,6.5,7.1,9.9,10.6c1.4,1.5,3.1,2.9,4.4,4.1C24,41.5,22,38,19.6,34.7c-1.4-1.9-3-3.8-4.3-5.8c-0.5-0.7-0.7-1.8-0.7-2.6
		c0-1,1-1.5,1.9-0.9c0.6,0.4,1.1,1,1.6,1.5c3.9,4,7.6,8.1,11.6,11.9c3.8,3.5,8.1,6.7,12.5,9.8c-1.5-2.9-3.1-5.9-4.6-8.8
		c-0.4-0.7-0.8-1.4-1.2-2.1c-2.3-4.2-4.6-8.4-6.9-12.7c-0.5-1-0.9-2-1.3-3c-0.1-0.3-0.1-0.8,0-0.9c0.3-0.2,0.9-0.3,1.1-0.2
		c5.4,2.8,10.1,7.8,14.9,11.7c4.3,3.6,8.6,7.2,12.9,10.8c1.4,1.2,2.7,2.4,4.1,3.6c0.2-2.8-1.1-5.1-2-7.5c-1.3-3.2-2.7-6.3-4.2-9.4
		c-1.8-3.7-4.1-7-6.8-10.1c-1-1.1-1.8-2.5-2.5-3.9c-0.2-0.4,0.1-1.2,0.5-1.7c0.2-0.2,1.1-0.1,1.4,0.2c1.4,1.4,2.7,2.9,3.9,4.4
		c1,1.2,1.8,2.6,2.8,3.9c0.3,0.4,0.9,1,1.3,1.1c2.7,0.2,4.5,2.1,6.3,3.7c3.4,3,6.6,6.2,9.9,9.3c2.8,2.6,5.6,5.1,8.6,8
		c-1.2-3.5-2.1-6.8-3.3-9.9c-1.4-3.7-3-7.3-4.5-10.9c-1.2-2.9-2.5-5.9-3.7-8.9c-0.7-1.7,0.7-3.3,2.6-2.3c1.3,0.7,2.6,1.7,3.6,2.7
		c5.2,5.1,10.4,10.3,15.6,15.5c3.1,3.1,6.1,6.3,9.1,9.5c0.3,0.3,0.6,0.5,1.4,0.7c-0.2-1.5-0.2-3-0.7-4.4c-2.1-6.9-4.9-13.5-8.5-19.8
		c-0.3-0.6-0.5-1.2-0.6-1.8c-0.2-1.1,0.4-2.8,1.3-3c1.1-0.3,2.1-0.3,3,0.6c3.4,3.7,6.9,7.3,10.3,11.1c3,3.4,5.9,7,8.8,10.6
		c2.4,3,4.6,6.2,6.9,9.3c0.3,0.4,0.7,0.9,1.3,1.6c0.1-0.8,0.2-1.3,0.1-1.8c-0.5-6.6-1.8-13.1-4-19.4c-0.8-2.4-1.5-4.9-2.2-7.3
		c-0.3-1,0.1-2.4,1-2.8c1-0.5,2-0.5,2.8,0.4s1.6,1.9,2.4,2.8c4.4,5.1,8.6,10.2,12.2,15.9c2.1,3.3,4.5,6.4,7.2,9.4
		c-1-4.6-1.8-9.3-2.9-13.9c-0.6-2.6-1.6-5.1-2.4-7.7c-0.2-0.7-0.2-1.6,0-2.3c0.5-1.6,1.6-1.7,2.7-0.4c1.9,2.2,2.5,5.1,3.7,7.6
		c1.3,2.6,2.5,5.2,3.8,7.8c0.1-0.1,0.3-0.1,0.4-0.2c-0.3-1-0.6-2-0.8-3c-0.3-1.2-0.6-2.4-0.5-3.6c0-1.3,1.2-1.8,2.1-0.8
		c0.7,0.7,1.4,1.6,1.6,2.5c0.9,4.2,1.5,8.4,2.3,12.6c0.8,4.5,1.6,9,3.8,13.1c2.6,5.1,4.1,10.4,3.7,16.2c-0.1,0.7,0.3,1.7-0.9,1.9
		c-1.2,0.2-1.8-0.5-2-1.5c-0.2-1.4-0.3-2.7-0.5-4.1c-0.2-1.6-0.5-3.2-0.7-4.9C155.3,62.3,155.1,62.4,154.9,62.4z M74.8,20.6
		c0.5,1.2,0.9,1.9,1.2,2.7c3.3,9.3,6.6,18.6,9.9,27.9c0.3,0.9,0.9,1.8,1.6,2.5c4.9,5,9.9,10,14.9,14.9c0.3,0.3,0.7,0.6,1.3,1
		c0.1-0.5,0.2-0.8,0.2-1c0.2-6.4-0.2-12.7-1.9-18.8c-0.4-1.6-1.2-2.9-2.3-4.1c-4.3-4.4-8.5-8.8-12.8-13.2
		C82.9,28.6,79,24.8,74.8,20.6z M121.8,65.5c0.2-0.1,0.3-0.1,0.5-0.2c0-3.9-0.1-7.7,0-11.6c0-1.5-0.4-2.7-1.2-3.9
		c-4.1-5.7-8.1-11.6-12.4-17.1c-2.9-3.7-6.2-7.1-9.3-10.7c-0.2,0.5-0.2,0.8-0.1,1c3.6,6.6,5.2,13.8,6.1,21.2c0.3,2.6,1,4.8,3.1,6.6
		c2.1,1.7,3.7,3.9,5.5,5.9C116.7,59.8,119.3,62.7,121.8,65.5z M88.1,70.4c0.1-0.1,0.2-0.2,0.3-0.3c-0.1-0.3-0.2-0.7-0.3-1
		c-1.4-4-2.7-8-4.1-12c-1.8-4.8-5.3-8.4-8.8-11.9C70,40,64.4,35,59,29.9c-0.1-0.1-0.3-0.1-0.4-0.1c0,0.1-0.1,0.3,0,0.4
		c1.5,4.1,3.2,8.2,4.6,12.5c1.5,4.5,3.9,8.5,7.3,11.8c2.9,2.8,6,5.5,9.1,8.2C82.4,65.2,85.2,67.8,88.1,70.4z M123,23
		c0.1,0.7,0.1,1.2,0.2,1.6c0.1,0.3,0.2,0.5,0.3,0.8c2.5,7.6,3.7,15.4,3.6,23.4c0,1.4,0.3,2.5,1.4,3.5c3,2.9,6.1,5.7,8.4,9.2
		c0.7,1.1,1.9,1.9,3,3.1c0.4-1,0.8-1.6,1-2.3c0.6-2.5,1.3-5.1,1.7-7.6c0.3-2.1,0.3-4.2-1.4-5.9c-0.5-0.5-0.8-1.2-1.2-1.8
		c-2.3-3.6-4.6-7.3-7.1-10.7C129.7,31.7,126.4,27.5,123,23z M117.5,84.5c1.4-4.7,2.7-8.7,3.9-12.9c0.2-0.6-0.3-1.6-0.8-2.1
		c-3.5-4.1-7.1-8.1-10.7-12.1c-0.7-0.8-1.5-1.5-2.4-2.5c0.1,2.1,0.3,3.8,0.3,5.5c0,3.9,0.1,7.8,0,11.7c0,1.4,0.3,2.4,1.3,3.3
		c1.2,1.1,2.3,2.3,3.4,3.5C114,80.6,115.5,82.4,117.5,84.5z M27,41.1c0.8,1.5,1.6,2.9,2.2,4.3c1.6,3.5,3.5,6.7,5.8,9.8
		c2.2,2.9,4.5,5.7,8.2,6.8c0.3,0.1,0.5,0.2,0.8,0.4c3.4,2.8,6.8,5.7,10.3,8.4c0.6,0.5,1.3,1,2.1,1.1c0.4,0.1,1.4-0.2,1.5-0.5
		c0.4-1,0.6-2.1,0.6-3.2c0-0.6-0.6-1.3-1.1-1.8c-4.1-4.3-8.4-8.3-13.8-10.9c-0.8-0.4-1.5-1-2.1-1.5C36.6,49.8,31.9,45.5,27,41.1z
		 M36,29.8c-0.1,0.1-0.3,0.1-0.4,0.2c1.7,2.9,3.4,5.9,5.1,8.8c2.5,4.4,4.9,8.9,7.3,13.4c2.2,4,5.9,6.6,8.9,9.8
		c0,0.1,0.1,0.1,0.2,0.1c0.3,0,0.7,0.1,1,0.1c-0.1-0.3-0.1-0.7-0.3-0.9c-0.5-0.6-1.2-1.1-1.7-1.8c-3.4-4.9-6.7-9.8-9.4-15.2
		c-0.4-0.8-0.8-2.3-0.4-2.6c1.5-1.1,0.3-1.7-0.3-2.3C42.8,36.2,39.4,33,36,29.8z M49.5,42c-0.1,0.1-0.1,0.1-0.2,0.2
		c1.7,2.9,3.5,5.6,5,8.6c1.3,2.6,2.7,5.1,5,7.1c1,0.9,1.8,1.9,2.5,3c0.3,0.4,0.5,1,0.5,1.6c0.1,0.9,0.1,1.8,0,2.6
		c0,1.1,0.4,1.9,1.4,2.5c1.3,0.7,2.6,1.5,4,2.3c0.4,0.2,0.9,0.2,1.4,0.3c-0.1-0.4,0-0.9-0.2-1.2c-1.5-3.5-3.2-6.9-4.5-10.4
		C63,55,61.1,51.9,58,49.5C55,47.2,52.3,44.5,49.5,42z M67.5,56.2c-0.1,0-0.2,0.1-0.3,0.1c0.8,2.1,1.5,4.3,2.4,6.4
		c1.6,3.4,3.4,6.8,5.1,10.2c0.2,0.4,0.5,0.9,0.9,1.2c2.9,2.1,5.8,4.1,8.8,6.1c1,0.7,1.8,0.2,1.9-1.1c0.1-1.4,0-2.8,0-4.2
		c0.1-1-0.3-1.8-1.1-2.5c-1.7-1.6-3.5-3.1-5.2-4.7c-2.5-2.3-4.9-4.6-7.4-6.9C71,59.2,69.2,57.7,67.5,56.2z M88.8,60.6
		c0.8,2.5,1.5,4.8,2.2,7.1c0.7,2.2,0.9,4.6,2.1,6.4c2.2,3.3,5.1,6.2,7.7,9.2c0.3,0.3,1.1,0.6,1.5,0.4s0.6-0.9,0.7-1.4
		c0.2-0.9,0.4-1.9,0.4-2.8c0-1.7,0.5-3.5-0.7-5.1c-0.9-1.1-1.8-2.3-2.8-3.3c-3-3.1-6.1-6.1-9.2-9.2C90.1,61.5,89.4,61.1,88.8,60.6z
		 M126.6,55.5c-0.3,0.8-0.4,0.9-0.4,1.1c0,4.5,0,8.9,0,13.4c0,0.5,0.2,1.1,0.5,1.6c1.3,2,2.7,3.9,4.1,5.9c0.5,0.7,1.1,1.5,1.9,2.5
		c1.4-2.6,2.6-4.9,3.8-7.2c1.4-2.8,1-5.1-1.1-7.4c-0.7-0.7-1.3-1.6-2-2.3C131.3,60.6,129.1,58.2,126.6,55.5z M125.4,94.2
		c1.6-3.3,3-6.1,4.3-8.9c0.7-1.6,0.2-3.2-0.6-4.5c-1.1-1.7-2.3-3.3-3.5-5c-0.2-0.3-0.5-0.6-0.7-0.8c-0.2,0.2-0.3,0.2-0.3,0.3
		c-1.4,3.9-1.9,8.2-4,11.9c-0.2,0.3-0.1,0.9,0.1,1.2C122.1,90.2,123.6,91.9,125.4,94.2z M90.8,79.1c-0.4,1.7-0.8,3.3-1.1,4.8
		c-0.2,1.2,0,2.2,1,3.1s1.7,2.1,2.6,3.2s1.8,2.3,2.8,3.3c0.2,0.3,1.1,0.4,1.2,0.2c1-1.3,2-2.7,2.8-4.1c0.6-0.9,0.3-1.8-0.5-2.6
		c-1-1-2.1-1.9-2.9-3C95.2,82.1,93.3,80.5,90.8,79.1z M96.5,102.1c-1.6,1.8-3,3.4-4.4,5c-2.2,2.3-2.3,2.3-0.8,5.4
		c0.1,0.3,0.2,0.5,0.4,0.8c0.9,1.7,1.9,2.1,3.6,1.2c1.5-0.9,2.8-2.2,4.2-3.4c0.3-0.2,0.4-0.8,0.3-1.2
		C99.4,107,98.2,104.6,96.5,102.1z M145.6,38.2c-0.2,0.1-0.3,0.2-0.5,0.2c1.5,7.4,2.1,15,5.8,22.2c0.7-3.5,1.1-6.8,0-9.9
		C149.4,46.5,147.4,42.4,145.6,38.2z M108.1,78.9c-0.7,2.7-1.4,5.2-2,7.7c-0.1,0.5-0.2,1.3,0.1,1.7c1.4,2.2,2.9,4.3,4.6,6.3
		c0.8,1,1.7,0.8,2.3-0.4c0.8-1.6,1.9-3.3,2.1-5c0.1-1.1-1.3-2.3-2-3.5c-0.2-0.4-0.5-0.7-0.8-1.1C110.9,82.8,109.5,80.9,108.1,78.9z
		 M74.5,77.8c-0.4,2.2-0.8,4.1-1,6.1c-0.1,1.1-0.5,2.3,0.6,3.3c1.9,1.6,3.7,3.3,5.5,5c0.8,0.7,1.5,0.7,2.3,0
		c1.5-1.3,2.2-3.1,2.6-4.9c0.1-0.4-0.1-1.1-0.4-1.4C81.3,82.8,78.3,80,74.5,77.8z M88.1,90c-0.7,1.6-1.1,2.9-1.8,4
		c-2.1,3.4-0.6,6.6,0.6,9.8c0.4,1.1,1.2,1.2,2,0.3c1-1.1,1.8-2.3,2.7-3.4c0.8-1,2.4-2,2.3-3c0-1.1-1.5-2.2-2.3-3.2
		C90.5,93.1,89.4,91.7,88.1,90z M139.8,75.5c-1.5,2.6-2.8,4.6-3.8,6.7c-0.4,0.9-0.7,2-0.6,2.9c0.2,1.6,0.8,3.2,1.2,4.8
		c0.3,1,0.7,1.2,1.5,0.5c0.4-0.4,0.7-0.8,0.9-1.2c0.9-1.6,1.8-3.3,2.7-5c0.3-0.5,0.3-1.1,0.4-1.7C142.5,80,140.6,78.2,139.8,75.5z
		 M129,104.3c0.8-1.1,1.4-1.9,2-2.8c0.7-0.9,1.3-1.9,2-2.9c2-3,1.7-6.5-0.7-9.2c-0.2,0.3-0.4,0.6-0.5,0.9c-1.1,2.1-2.2,4.3-3.2,6.4
		C127.3,99.3,127.3,101.7,129,104.3z M103,106.7c2-2.2,3.8-4.2,5.6-6.1c0.9-0.9,0.5-1.8-0.1-2.6c-1.1-1.4-2.4-2.8-3.6-4.2
		c-0.7-0.9-1.3-0.7-2,0.1c-1.1,1.3-2.2,2.5-3.3,3.8c-0.2,0.2-0.1,0.6-0.1,0.9c0.2,0.5,0.4,1.1,0.6,1.6
		C101.1,102.3,102,104.3,103,106.7z M144.6,76.5c1.3-2.9,2.5-5.3,3.6-7.7c0.1-0.1,0.1-0.3,0.1-0.4c0.2-3.1,0-6.2-1.8-8.9
		c-1.3,3.6-2.7,7.2-4,10.8c-0.2,0.6-0.3,1.5,0,2.1C143,73.7,143.7,74.8,144.6,76.5z M61.9,70.3c-1.9,4.1-0.7,6.5,2.3,7.4
		c1.6,0.5,3,1.5,4.1,2.8c0.5,0.6,1.1,1.1,2,1.9c0.1-1.4,0.1-2.5,0.4-3.4c0.4-1.3,0.1-2.1-0.9-2.8C67.1,74.3,64.6,72.3,61.9,70.3z
		 M105.4,116.8c2.1-2.3,4.1-4.5,6-6.7c1.6-1.9,1.6-3.1,0.4-5.2c-0.5-0.8-0.9-0.9-1.5-0.2c-1.5,1.8-2.9,3.6-4.4,5.4
		C104.3,112.1,104.2,114.2,105.4,116.8z M55.2,124.6c4.3,0.1,4.9-0.8,5.9-3.8c0.5-1.6,0.4-1.8-1.2-1.8c-2.4,0.1-4.8,0.4-7.2,0.4
		c-1.7,0-2.5,0.7-3.1,2.1s-0.3,2.1,1.1,2.4C52.2,124.3,53.7,124.4,55.2,124.6z M113.9,100.7c0.2,1.1,0.3,2.1,0.6,3
		c0.3,0.8,0.9,1.2,1.6,0.4c1.2-1.2,2.5-2.4,3.7-3.7c0.9-1,2.3-2.2,2.3-3.3c0-1.1-1.4-2.2-2.2-3.3c-0.1-0.2-0.2-0.4-0.3-0.6
		c-0.5-0.6-0.9-1-1.4,0c-1.2,2.1-2.5,4.2-3.8,6.3C114.1,99.9,114,100.5,113.9,100.7z M49.6,86.9c-2.1-2.2-10.1-5-14.8-5.5
		c1.3,3,0.9,3,4.2,3.5c0.3,0,0.5,0.2,0.8,0.3C43.1,85.8,46.3,86.3,49.6,86.9z M85.2,124.4c-2.2,0-4.2-0.1-6.2,0
		c-1.4,0.1-2.6,0.9-3.2,2.3c-0.5,1.1-0.9,2.1-1.2,3.3c-0.1,0.5-0.1,1.3,0.2,1.5c0.3,0.3,1.1,0.3,1.6,0.1c1.3-0.6,2.8-1.1,3.9-1.9
		C82,128.2,84.3,127.1,85.2,124.4z M47.1,89.9c-2.4-0.3-5.2-0.7-8.1-1.2c-1.8-0.3-3.6-0.4-5.2,0.6c-1.2,0.7-1.2,1.1-0.3,2.2
		c1.2,1.5,2.7,1.5,4.3,1.1c1.1-0.3,2.2-0.8,3.3-1.1C43.2,90.8,45.3,90.3,47.1,89.9z M47.8,93.5C47.1,93.6,46,93.7,45,94
		c-1.5,0.5-3,1-4.4,1.8c-0.9,0.5-0.8,0.9,0.2,1.4c1.6,0.8,3.2,1.6,4.9,2.3c0.7,0.3,2,0.4,2.4,0c0.9-1,1.8-2.3,2.1-3.7
		C50.5,94,49.9,93.5,47.8,93.5z M85.5,110.1c-1.8-0.5-3.3-0.9-4.7-1.3c-1.8-0.5-3.6-1-5.5-0.4c-1.1,0.4-1.9,0.6-1.9,1.9
		c0,1.5,1,1.7,2,1.8C78.8,112.4,82,111.7,85.5,110.1z M52.9,106.7c-4.4-1.9-8.2,0.3-12.6,0c1.6,1,2.8,1.9,4.1,2.5
		c0.8,0.4,1.9,0.8,2.7,0.6C49.2,109.4,51.1,108.3,52.9,106.7z M79.5,97.4c-0.1-0.2-0.1-0.5-0.3-0.6c-1.1-0.8-2.1-1.5-3.2-2.2
		c-0.1-0.1-0.5,0-0.6,0.2c-1.2,1.3-2.5,2.6-3.6,4c-0.1,0.1,0.1,0.8,0.3,1c1.8,1.7,2.3,1.7,4.5,0.2c0.8-0.6,1.6-1.3,2.3-1.9
		C79.2,97.9,79.3,97.7,79.5,97.4z M81.1,116c-0.1-0.2-0.1-0.4-0.2-0.5c-2.1,0.2-4.2,0.3-6.2,0.6c-0.9,0.1-1.6,0.8-2,1.8
		c-0.5,1.5-0.2,2.2,1.4,2.1C77.1,119.7,79.6,118.6,81.1,116z M67.3,85.4c0.8,2,1.9,3.6,1.7,5.6c-0.2,1.3,0,2.6,0,3.9
		c0,0.3,0.1,0.5,0.2,0.8c0.3-0.1,0.7-0.1,1-0.3c1.5-1.2,2-3,1.2-4.9C70.5,88.6,69.2,87,67.3,85.4z M62.3,85.2c-2.1-3-4-5.7-5.9-8.5
		C56.3,78,56.6,79,56.9,80C57.6,82.6,58.9,84.7,62.3,85.2z M101.2,117.2c0-0.1-0.2-1.2-0.4-1.2c-0.7-0.1-1.5,0.2-2.2,0.5
		c-0.6,0.3-1,0.9-1.4,1.4c-0.9,1.1-0.4,2.3,1,2.6C100.3,120.9,101.2,120,101.2,117.2z M60.4,91.4c0.6-0.3,1.6-0.7,2.6-1.1
		c0.5-0.3,0.5-0.7,0-1c-1.6-0.7-3.1-1.4-4.7-2.1c-0.2-0.1-0.6,0.1-0.7,0.2C56.9,88.8,58.6,91.4,60.4,91.4z M62.7,129.7
		c0.1,0.2,0.3,0.3,0.4,0.5c1.5-0.7,3.1-1.3,4.5-2.2c1-0.6,1.8-1.5,2.6-2.3c0.2-0.2,0.2-0.7,0.1-1c-0.1-0.2-0.6-0.2-0.9-0.1
		c-0.5,0.2-1.1,0.3-1.6,0.7C66,126.7,64.4,128.2,62.7,129.7z M81.5,105.1c0.2-0.1,1.1-0.4,1.1-0.7c0-0.8-0.3-1.8-0.8-2.3
		c-0.3-0.3-1.4-0.1-2,0.3c-0.7,0.5-1.1,1.3-1.6,2c0.8,0.3,1.6,0.6,2.4,0.8C80.7,105.1,80.9,105.1,81.5,105.1z M64.2,110
		c0,0.2,0.1,0.4,0.1,0.6c1.4,0.1,2.8,0.2,4.2,0.1c0.4,0,0.9-0.7,0.9-1.1c0-0.3-0.6-1-1-1C66.8,108.4,65.3,108.6,64.2,110z
		 M64.9,93.4c-1.1,0.4-2,0.7-2.8,1.1c-0.4,0.2-0.9,0.9-0.8,1.1c0.2,0.4,0.8,0.9,1.3,1C64.4,97.1,65.2,96,64.9,93.4z M55.1,94.2
		c-0.5,0.9-0.9,1.5-1.1,2.3c-0.2,0.5-0.2,1.1,0,1.6c0.1,0.2,0.9,0.5,1.1,0.3c0.5-0.3,1.1-0.8,1.2-1.4C56.5,96,56,95.1,55.1,94.2z
		 M61.8,114.4c-3.1-1.5-3.8-1.5-5.2,0.5C58.4,114.7,60.1,114.5,61.8,114.4z M57.5,102.4c-1.3,0-2.4,0-3.6,0c-0.2,0-0.5,0.5-0.7,0.7
		c0.2,0.2,0.4,0.5,0.7,0.5C55.3,104.1,56.4,103.4,57.5,102.4z M69.3,104.1c-1.5-1-3.1-0.7-4.9,1.1C66.2,104.8,67.7,104.4,69.3,104.1
		z M52.3,111.9c0.2,0.2,0.4,0.4,0.5,0.6c0.9-0.8,1.8-1.6,2.7-2.4c-0.1-0.2-0.3-0.3-0.4-0.5C54.2,110.4,53.3,111.2,52.3,111.9z
		 M68,117.8c-0.1-0.1-0.2-0.1-0.2-0.2c-0.5,0.6-1,1.3-1.5,1.9c0.1,0.1,0.2,0.2,0.4,0.2C67.1,119.1,67.5,118.5,68,117.8z"/>
	<path class="st2" d="M141.2,18.1c4.9,1.9,9,4.2,12.2,7.8c2.7,3.1,4,6.6,2.5,10.7c-0.5,1.4-1.5,2.6-2.4,4.3c-0.4-1.3-0.7-2-0.7-2.8
		c0-3.3-1.2-6.8-2.3-9.9c-0.6-2-2-4.7-4.5-3.4c-0.4,0.2-0.6,0.8-1,1.5C143.8,23.5,142.6,21,141.2,18.1z"/>
	<g>
		<path class="st2" d="M135.1,21.4c-3.1-0.9-6.3-1.8-9.4-2.7c-0.4-0.1-0.8-0.4-1.1-0.7c-1.2-1.3-2.3-2.6-3.6-3.8
			c-2-1.9-3.9-1.6-5.2,0.8c-0.4,0.8-1,1.3-1.9,1.1c-1.1-0.1-2.2-0.3-3.2-0.4c-3.6-0.5-7.2-0.9-10.8-1.4c-1.3-0.2-2.4-0.7-3.4-1.7
			c-1.8-1.9-3.8-2.3-4.9-0.8c-1.5,2-3.2,1.5-5.1,1.4c-2.5-0.2-5.1,0.2-7.6,0.3s-4.9,0.4-7.1-1.4c-1.8-1.5-3.3-1-4.8,1
			c-0.3,0.4-0.7,0.8-1.2,0.8c-4.9,0.7-9.8,1.4-14.7,1.9c-0.6,0.1-1.3-0.5-1.8-0.9c-0.8-0.8-1.6-1.4-2.8-1.5
			c-1.6-0.1-2.8,0.9-2.4,2.4c0.3,1.1,0.1,1.5-1.1,1.8c-3.4,0.9-6.8,2-10.3,2.9c-0.7,0.2-1.5,0-2.3-0.2c-0.6-0.1-1-0.5-1.6-0.7
			c-1.4-0.6-2.7,0-2.6,1.5c0.1,1.4-0.6,2-1.6,2.5c-1.5,0.7-3,1.5-4.5,2.2c-0.9,0.4-1.6,0.2-2.3-0.5c-0.9-0.9-0.9-1.7-3.3-1.5
			c1.4-1.5,4.2-3.5,5.8-4.4c2.4-1.4,6.9-3,10.3-4.2c8.9-3.1,18.3-5,27.7-6c17.5-2,36.5-2.2,53.9,0.8c5.1,0.9,10.2,1.8,15.2,3
			c3,0.7,5.8,1.9,8.7,2.9c0.9,0.3,0.9,0.7,0.4,1.6C135.7,18.6,135.5,20.1,135.1,21.4z"/>
		<path class="st2" d="M13.8,29.2c0,0-0.9,1.1-1.5,1.1c0,0-1.3-1.8-3.3-1.9c-0.2,0,1.1-1.1,1.3-1.4c0.8-1,3.2-2.8,3.1-2.5
			C12.5,26.4,13.5,27.3,13.8,29.2z"/>
		<path class="st2" d="M8.2,33.7c2.7,2.6,3.5,7.4,3.5,7.4C10.1,40.1,8.1,35.8,8.2,33.7z"/>
	</g>
	<path d="M74.8,20.6c4.2,4.2,8.1,8,12,11.9c4.3,4.4,8.5,8.8,12.8,13.2c1.2,1.2,1.9,2.5,2.3,4.1c1.7,6.2,2.2,12.5,1.9,18.8
		c0,0.3-0.1,0.5-0.2,1c-0.5-0.4-0.9-0.6-1.3-1c-5-5-10-9.9-14.9-14.9c-0.7-0.7-1.2-1.6-1.6-2.5C82.5,42,79.3,32.7,76,23.4
		C75.7,22.6,75.3,21.8,74.8,20.6z M96.6,45.1c-2.2,1.8-4.5,3.7-6.8,5.7c-0.3,0.2-0.6,0.8-0.5,1c0.7,1.5,1.2,3.2,2.3,4.4
		c3,3.2,6.1,6.3,9.3,9.4c0.3,0.3,0.7,0.5,1.4,1c-0.1-4.2,0.4-8.1-0.5-11.9C101,51.1,100.6,47.3,96.6,45.1z M79,27.1
		c0.1,0.8,0.1,1.2,0.2,1.6c2.2,6.2,4.4,12.3,6.6,18.5c0.2,0.5,0.4,1.1,0.7,1.6c0.8,1.2,1.5,1.3,2.7,0.4c1.6-1.3,3.3-2.7,4.9-4
		c1.4-1.2,1.5-1.6,0.1-3c-1.5-1.6-3.1-3.1-4.7-4.6c-3.1-3.2-6.1-6.4-9.2-9.6C80.1,27.7,79.7,27.5,79,27.1z"/>
	<path d="M121.8,65.5c-2.6-2.9-5.1-5.8-7.7-8.6c-1.8-2-3.5-4.2-5.5-5.9c-2.2-1.8-2.8-4.1-3.1-6.6c-0.9-7.4-2.5-14.6-6.1-21.2
		c-0.1-0.2-0.2-0.5,0.1-1c3.1,3.5,6.4,6.9,9.3,10.7c4.3,5.6,8.3,11.4,12.4,17.1c0.8,1.2,1.2,2.4,1.2,3.9c-0.1,3.9,0,7.7,0,11.6
		C122.2,65.4,122,65.5,121.8,65.5z M120.8,56.4L120.8,56.4c0-0.7-0.1-1.3,0-2c0.3-3.4-1.5-5.9-3.7-8c-2.7-2.6-5.8-4.8-8.8-7.1
		c-0.4-0.3-1.1-0.4-1.6-0.2c-0.3,0.1-0.5,0.9-0.4,1.3c0.2,1.5,0.5,3,0.8,4.5c0.3,1.8,1.1,3.3,2.4,4.7c2.9,3,5.6,6.3,8.3,9.5
		c0.5,0.6,1,1.1,1.5,1.6c0.3,0.3,0.7,0.4,1.1,0.6c0.1-0.4,0.4-0.8,0.4-1.1C120.9,58.9,120.8,57.6,120.8,56.4z M110.9,37.6
		c-0.1,0.1-0.3,0.3-0.4,0.4c0.5,0.9,0.6,2.2,2.7,2.3C112.2,39.2,111.5,38.4,110.9,37.6z"/>
	<path d="M123,23c3.4,4.5,6.8,8.7,9.9,13.1c2.5,3.5,4.7,7.2,7.1,10.7c0.4,0.6,0.7,1.3,1.2,1.8c1.7,1.7,1.7,3.9,1.4,5.9
		c-0.4,2.6-1.1,5.1-1.7,7.6c-0.2,0.7-0.5,1.3-1,2.3c-1.1-1.1-2.3-2-3-3.1c-2.4-3.5-5.5-6.3-8.4-9.2c-1-1-1.4-2.1-1.4-3.5
		c0.1-8-1.1-15.8-3.6-23.4c-0.1-0.3-0.3-0.5-0.3-0.8C123.1,24.1,123,23.7,123,23z M140.9,54.6c0.4-2.4,0.1-4.2-1.1-6.1
		c-2.9-4.2-5.6-8.5-8.5-12.7c-1.1-1.6-2.4-3.1-3.7-4.6c-0.2-0.2-0.6-0.2-0.9-0.2c-0.1,0-0.2,0.5-0.2,0.8c0.2,1.1,0.4,2.3,0.6,3.4
		c0.5,4.2,1.1,8.4,1.5,12.5c0.1,1.1,0.5,1.7,1.5,2c1.3,0.4,2.6,1,3.8,1.5C136.2,52.5,138.4,53.5,140.9,54.6z M131.4,52.4
		c0.7,2.4,2.8,3.3,4,4.9c1.3,1.6,2.6,3.1,4,4.8c0.4-1,0.9-1.6,1-2.3c0.2-1.2,0.9-2.7-0.4-3.6C137.5,54.5,134.7,53.1,131.4,52.4z"/>
	<path d="M117.5,84.5c-1.9-2.1-3.5-3.9-5.1-5.6c-1.1-1.2-2.2-2.4-3.4-3.5c-1-0.9-1.4-1.9-1.3-3.3c0.1-3.9,0.1-7.8,0-11.7
		c0-1.7-0.2-3.4-0.3-5.5c0.9,0.9,1.7,1.7,2.4,2.5c3.6,4,7.2,8,10.7,12.1c0.5,0.5,0.9,1.5,0.8,2.1C120.2,75.8,118.9,79.8,117.5,84.5z
		 M109.6,61.7c-0.2,0.5-0.3,0.7-0.3,0.8c0,3.4,0,6.9,0,10.3c0,0.5,0.1,1.1,0.5,1.4c2.1,2.2,4.2,4.3,6.3,6.4c0.6,0.6,1,0.4,1.3-0.4
		c0.5-1.6,1-3.2,1.4-4.8c0.1-0.5-0.2-1.1-0.5-1.6c-1.6-2.3-3.3-4.7-4.9-7C112.2,65.2,110.9,63.6,109.6,61.7z"/>
	<path d="M67.5,56.2c1.7,1.5,3.5,3,5.2,4.6c2.5,2.3,4.9,4.6,7.4,6.9c1.7,1.6,3.4,3.2,5.2,4.7c0.8,0.7,1.1,1.5,1.1,2.5
		c-0.1,1.4,0,2.8,0,4.2c-0.1,1.3-0.9,1.8-1.9,1.1c-3-2-5.9-4-8.8-6.1c-0.4-0.3-0.7-0.7-0.9-1.2c-1.7-3.4-3.5-6.7-5.1-10.2
		c-1-2.1-1.6-4.3-2.4-6.4C67.2,56.3,67.3,56.2,67.5,56.2z M84.7,76.4c0.1,0,0.2-0.1,0.3-0.1c-0.3-0.9-0.4-2.1-1-2.7
		c-2.2-2.3-4.6-4.5-6.9-6.7c-0.5-0.5-1.1-1.2-1.8-0.4c-0.8,0.8-1.8,1.4-1.2,2.8c0.9,2.1,1.8,4.1,3.9,5.4c1,0.6,1.8,1.4,2.8,2.1
		c0.8,0.6,1.7,1.1,2.6,1.6c0.7,0.4,1.3,0.2,1.3-0.8C84.7,77.1,84.7,76.7,84.7,76.4z M71,60.9c-0.2,0.1-0.3,0.3-0.5,0.4
		c0.8,1.8,1.5,3.7,2.4,5.8c0.6-0.9,1.1-1.3,1.3-1.9c0.1-0.4,0.1-1-0.2-1.3C73,62.9,72,61.9,71,60.9z"/>
	<path d="M88.8,60.6c0.6,0.5,1.3,0.8,1.8,1.3c3.1,3,6.1,6.1,9.2,9.2c1,1,1.9,2.2,2.8,3.3c1.2,1.5,0.8,3.4,0.7,5.1
		c0,0.9-0.2,1.9-0.4,2.8c-0.1,0.5-0.3,1.3-0.7,1.4c-0.4,0.2-1.2-0.1-1.5-0.4c-2.6-3-5.5-5.9-7.7-9.2c-1.2-1.8-1.4-4.2-2.1-6.4
		C90.3,65.4,89.5,63.1,88.8,60.6z"/>
	<path d="M126.6,55.5c2.5,2.7,4.7,5.1,6.8,7.5c0.7,0.8,1.3,1.6,2,2.3c2.1,2.2,2.5,4.6,1.1,7.4c-1.2,2.3-2.4,4.6-3.8,7.2
		c-0.8-1-1.4-1.7-1.9-2.5c-1.4-1.9-2.8-3.9-4.1-5.9c-0.3-0.5-0.5-1.1-0.5-1.6c0-4.5,0-8.9,0-13.4C126.2,56.4,126.3,56.2,126.6,55.5z
		 M132.9,77.5c0.9-1.7,1.7-3.3,2.5-4.9c1.1-2.2,0.9-4.3-0.7-6.3c-0.9-1.1-1.6-2.3-2.5-3.3c-1.2-1.4-2.6-2.7-3.9-4
		c-0.4,4-0.4,7.7-0.4,11.5c0,0.1,0.1,0.3,0.2,0.4C129,73.6,130.5,75.7,132.9,77.5z"/>
	<path d="M125.4,94.2c-1.9-2.3-3.4-4-4.8-5.9c-0.2-0.3-0.3-0.9-0.1-1.2c2.1-3.7,2.6-8,4-11.9c0-0.1,0.1-0.1,0.3-0.3
		c0.2,0.3,0.5,0.5,0.7,0.8c1.2,1.7,2.4,3.3,3.5,5c0.9,1.4,1.4,2.9,0.6,4.5C128.5,88.1,127,90.9,125.4,94.2z M123.9,82.5
		c-0.8,1.9-1.4,3.4-1.9,4.9c-0.1,0.3,0,0.9,0.2,1.1c0.9,1.1,1.9,2.2,3,3.4c0.6-1.1,1-1.9,1.5-2.6c0.6-0.9,0.7-1.8-0.1-2.8
		C125.7,85.4,125,84.1,123.9,82.5z M125.1,78.1c0,0.8-0.3,1.7,0,2.3c0.8,1.6,1.9,3,3.2,4.9C129.2,81.8,127.1,80.1,125.1,78.1z"/>
	<path d="M90.8,79.1c2.5,1.4,4.4,2.9,5.9,5.1c0.8,1.1,1.9,2,2.9,3c0.8,0.8,1,1.6,0.5,2.6c-0.9,1.4-1.8,2.8-2.8,4.1
		c-0.1,0.2-1,0-1.2-0.2c-1-1.1-1.9-2.2-2.8-3.3c-0.9-1.1-1.6-2.3-2.6-3.2c-1-0.9-1.2-1.9-1-3.1C90,82.4,90.4,80.9,90.8,79.1z
		 M94.4,83.7c0.1,1.9,0.3,3.5,0.3,5.1c0,1.3,0.7,2,1.5,2.7c0.2,0.2,0.7,0.3,0.9,0.2c1.4-0.6,2.1-2.3,1.4-3.6
		C97.6,86.3,96.3,85,94.4,83.7z M92.2,86.7c0.2-0.1,0.3-0.2,0.5-0.3c0-1.1,0-2.1,0-3.2c0-0.5-0.2-1-0.5-1.4c-0.1-0.1-0.8,0-0.8,0
		c-0.2,1.1-0.4,2.3-0.3,3.4C91.1,85.8,91.8,86.2,92.2,86.7z"/>
	<path d="M96.5,102.1c1.6,2.5,2.8,5,3.3,7.7c0.1,0.4-0.1,1-0.3,1.2c-1.3,1.2-2.7,2.5-4.2,3.4c-1.7,1-2.6,0.5-3.6-1.2
		c-0.1-0.3-0.3-0.5-0.4-0.8c-1.5-3-1.5-3,0.8-5.4C93.6,105.5,95,103.8,96.5,102.1z M95.4,105.1c-1.1,1.3-2.1,2.4-3,3.5
		c-0.5,0.6-0.2,0.9,0.4,1.1c1.3,0.4,2.5,0.8,3.7,1.1c1.2,0.3,1.5-0.2,1-1.3C97,108.1,96.3,106.8,95.4,105.1z M96.1,112.4
		c0-0.1-0.1-0.3-0.1-0.4c-0.7-0.2-1.3-0.6-2-0.6c-0.5,0-1.3,0.3-1.3,0.5c0,0.7,0.3,1.5,1.2,1.4C94.7,113.1,95.4,112.7,96.1,112.4z"
		/>
	<path d="M145.6,38.2c1.8,4.2,3.8,8.3,5.3,12.6c1.1,3.1,0.7,6.4,0,9.9c-3.7-7.2-4.3-14.8-5.8-22.2C145.2,38.4,145.4,38.3,145.6,38.2
		z M150.2,55c-0.2-3-0.9-5.8-2.4-8.4C147.6,48.6,148.7,52.8,150.2,55z"/>
	<path d="M108.1,78.9c1.4,2,2.8,3.9,4.2,5.8c0.3,0.4,0.5,0.7,0.8,1.1c0.7,1.2,2.1,2.4,2,3.5c-0.1,1.7-1.2,3.4-2.1,5
		c-0.6,1.2-1.4,1.4-2.3,0.4c-1.7-2-3.1-4.2-4.6-6.3c-0.3-0.4-0.2-1.1-0.1-1.7C106.7,84.1,107.4,81.6,108.1,78.9z M108.9,82.4
		c-0.2,0-0.4,0.1-0.5,0.1c-0.3,1.8-0.7,3.6-0.9,5.5c-0.1,0.6,0.2,1.3,0.6,1.8c1.1,1.2,2.3,2.4,3.5,3.5c2.7-3.8,2.7-3.8,0-7.4
		C110.7,84.8,109.8,83.6,108.9,82.4z"/>
	<path d="M74.5,77.8c3.8,2.2,6.9,4.9,9.6,8c0.3,0.3,0.5,1,0.4,1.4c-0.4,1.9-1.1,3.6-2.6,4.9c-0.8,0.7-1.5,0.7-2.3,0
		c-1.8-1.7-3.6-3.4-5.5-5c-1.1-1-0.7-2.2-0.6-3.3C73.7,82,74.1,80.1,74.5,77.8z M74.3,84.7c0.1,0.3,0,1,0.3,1.3
		c1.7,1.7,3.6,3.2,5.4,4.8c0.2,0.2,1,0.2,1.1,0c0.7-1.2,1.4-2.4,1.7-3.8c0.1-0.6-0.6-1.6-1.2-2.2C80,83,78.4,81.2,76,80.3
		c-0.7-0.3-1.1-0.2-1.2,0.6C74.8,82.2,74.6,83.3,74.3,84.7z"/>
	<path d="M88.1,90c1.4,1.7,2.4,3.1,3.5,4.4c0.8,1.1,2.3,2.1,2.3,3.2c0,1-1.5,2-2.3,3c-0.9,1.1-1.8,2.3-2.7,3.4
		c-0.8,0.9-1.6,0.9-2-0.3c-1.2-3.2-2.7-6.4-0.6-9.8C86.9,92.9,87.3,91.6,88.1,90z M86.1,98.1c0.5,1.3,1,2.4,1.4,3.5
		c0.3,1,0.9,1.1,1.5,0.4c1-1.2,2-2.5,2.9-3.9c0.2-0.3,0.3-1,0.1-1.2c-0.9-1.2-1.9-2.4-3-3.5c-0.2-0.2-0.9-0.1-1,0
		C87.4,95,86.8,96.6,86.1,98.1z"/>
	<path d="M139.8,75.5c0.7,2.7,2.6,4.5,2.3,7.1c-0.1,0.6-0.1,1.2-0.4,1.7c-0.8,1.7-1.8,3.3-2.7,5c-0.2,0.4-0.6,0.8-0.9,1.2
		c-0.7,0.7-1.2,0.6-1.5-0.5c-0.4-1.6-1-3.2-1.2-4.8c-0.1-0.9,0.1-2.1,0.6-2.9C137.1,80.1,138.4,78.1,139.8,75.5z M137.4,87.9
		c0.2,0,0.5,0,0.7,0c1.2-2.8,4-5.2,1.7-8.9c-1.8,1.3-2.4,3.4-3.1,5.2C136.3,85.2,137.1,86.6,137.4,87.9z"/>
	<path d="M129,104.3c-1.7-2.6-1.7-5.1-0.5-7.6c1-2.1,2.1-4.3,3.2-6.4c0.2-0.3,0.3-0.6,0.5-0.9c2.4,2.8,2.7,6.2,0.7,9.2
		c-0.6,1-1.3,1.9-2,2.9C130.4,102.4,129.7,103.3,129,104.3z M129.4,101.2c1.4-1,2.3-2.3,2.8-3.8c0.2-0.6-0.3-1.5-0.6-2.2
		c0-0.1-0.9-0.1-1,0C129.9,97.1,128.2,98.8,129.4,101.2z"/>
	<path d="M103,106.7c-1-2.4-1.9-4.4-2.8-6.5c-0.2-0.5-0.5-1-0.6-1.6c-0.1-0.3-0.1-0.7,0.1-0.9c1.1-1.3,2.2-2.5,3.3-3.8
		c0.6-0.8,1.3-0.9,2-0.1c1.2,1.4,2.4,2.7,3.6,4.2c0.6,0.7,1,1.6,0.1,2.6C106.8,102.5,105.1,104.5,103,106.7z M104.4,95.2
		c-0.2,0-0.3,0-0.3,0.1c-1,0.9-2,1.7-2.8,2.8c-0.2,0.3,0.3,1.2,0.5,1.9c0.2,0.6,0.3,1.1,0.5,1.7c0.4,0.8,0.9,1.4,1.4,2.2
		c0.7-0.5,1.4-1,2-1.6c2.5-3.1,2.4-3.3-0.6-6.1C104.8,95.7,104.6,95.5,104.4,95.2z"/>
	<path d="M144.6,76.5c-0.8-1.6-1.6-2.8-2-4.1c-0.2-0.6-0.2-1.5,0-2.1c1.3-3.6,2.6-7.2,4-10.8c1.8,2.7,2,5.8,1.8,8.9
		c0,0.1,0,0.3-0.1,0.4C147,71.2,145.9,73.6,144.6,76.5z M146.5,63.5c-0.3,0.5-0.5,0.8-0.7,1.1c-0.7,2-1.4,4-2.1,5.9
		c-0.4,1.2,0,2.1,1.1,3.1C145.5,70.2,148.4,67.5,146.5,63.5z"/>
	<path d="M61.9,70.3c2.7,2,5.2,4,7.8,5.9c1,0.7,1.4,1.5,0.9,2.8c-0.3,0.9-0.2,1.9-0.4,3.4c-0.8-0.8-1.5-1.3-2-1.9
		c-1.1-1.3-2.5-2.3-4.1-2.8C61.2,76.8,60,74.4,61.9,70.3z M66.9,77.7c1.1-1.4,1.1-1.7-0.3-2.8c-0.9-0.7-1.8-1.2-2.7-1.9
		c-0.9-0.7-1.4-0.3-1.4,0.6c0,0.7,0.3,1.6,0.8,2C64.4,76.5,65.7,77.1,66.9,77.7z"/>
	<path d="M105.4,116.8c-1.2-2.6-1.1-4.7,0.5-6.7c1.5-1.8,2.9-3.6,4.4-5.4c0.6-0.7,1.1-0.6,1.5,0.2c1.2,2,1.2,3.3-0.4,5.2
		C109.5,112.3,107.5,114.4,105.4,116.8z M106.2,112.1c1.2-0.3,2.3-0.2,2.8-0.8c1.1-1.1,2.1-2.4,2-4.2c0-0.2-0.2-0.5-0.3-0.5
		c-0.3,0-0.6,0.1-0.8,0.3c-1.1,1.2-2.1,2.3-3.2,3.6C106.6,110.8,106.5,111.3,106.2,112.1z"/>
	<path d="M55.2,124.6c-1.5-0.2-3-0.3-4.5-0.7c-1.4-0.3-1.7-1-1.1-2.4c0.6-1.4,1.4-2.2,3.1-2.1c2.4,0,4.8-0.3,7.2-0.4
		c1.7,0,1.8,0.2,1.2,1.8C60.2,123.8,59.6,124.7,55.2,124.6z M55.2,123.6c1.2-0.2,2.4-0.2,3.3-0.7c0.6-0.3,1-1.3,1.1-2.1
		c0.1-0.9-0.9-0.8-1.5-0.7c-2.1,0.3-4.3,0.6-6.4,1c-0.3,0.1-0.6,0.6-0.7,0.9c-0.1,0.2,0.3,0.6,0.6,0.7
		C52.8,123.1,54,123.3,55.2,123.6z"/>
	<path d="M113.9,100.7c0.1-0.3,0.2-0.8,0.4-1.2c1.3-2.1,2.6-4.2,3.8-6.3c0.6-1,0.9-0.6,1.4,0c0.1,0.2,0.2,0.4,0.3,0.6
		c0.8,1.1,2.2,2.2,2.2,3.3c0,1.1-1.4,2.2-2.3,3.3c-1.2,1.3-2.5,2.5-3.7,3.7c-0.8,0.8-1.4,0.5-1.6-0.4
		C114.2,102.8,114.1,101.9,113.9,100.7z M116.3,102.5c1-1.3,2.1-2.6,3.1-3.9c1.2-1.6,1.2-2,0-3.4c-0.5-0.7-1-0.5-1.3,0.1
		c-0.7,1.3-1.2,2.9-2.2,4C114.8,100.7,114.9,101.5,116.3,102.5z"/>
	<path d="M49.6,86.9c-3.3-0.6-6.6-1.1-9.8-1.7c-0.3,0-0.5-0.2-0.8-0.3c-3.3-0.5-2.9-0.6-4.2-3.5C39.5,81.9,47.6,84.6,49.6,86.9z"/>
	<path d="M85.2,124.4c-0.9,2.7-3.2,3.8-5,5.3c-1.1,0.9-2.6,1.4-3.9,1.9c-0.5,0.2-1.3,0.2-1.6-0.1c-0.3-0.3-0.3-1.1-0.2-1.5
		c0.3-1.1,0.7-2.2,1.2-3.3c0.6-1.4,1.8-2.2,3.2-2.3C81,124.3,83,124.4,85.2,124.4z M82.5,126.3c-0.1-0.2-0.2-0.3-0.2-0.5
		c-1.2,0-2.5-0.1-3.6,0.1c-0.6,0.1-1.3,0.6-1.7,1.2c-0.5,0.7-0.7,1.6-1,2.4c-0.1,0.2,0,0.6,0.2,0.7c0.2,0.1,0.6,0,0.8-0.1
		c1.2-0.6,2.4-1.1,3.4-1.9C81.1,127.7,81.8,126.9,82.5,126.3z"/>
	<path d="M47.1,89.9c-1.8,0.5-3.9,1-5.9,1.6c-1.1,0.3-2.2,0.8-3.3,1.1c-1.6,0.5-3.1,0.4-4.3-1.1c-0.9-1.1-0.9-1.4,0.3-2.2
		c1.6-1,3.4-1,5.2-0.6C41.8,89.2,44.7,89.5,47.1,89.9z M39.9,90.2c0-0.2,0-0.4-0.1-0.6c-1.6,0.1-3.3,0.2-4.9,0.3
		c-0.3,0-0.5,0.4-0.7,0.7c0.3,0.2,0.5,0.6,0.8,0.6C36.8,91.4,38.5,91.4,39.9,90.2z"/>
	<path d="M47.8,93.5c2.2,0,2.8,0.5,2.3,2.2c-0.3,1.3-1.2,2.6-2.1,3.7c-0.4,0.4-1.7,0.3-2.4,0c-1.7-0.6-3.3-1.5-4.9-2.3
		c-1-0.5-1.1-0.9-0.2-1.4c1.4-0.7,2.9-1.3,4.4-1.8C45.9,93.7,47.1,93.6,47.8,93.5z M42.1,96.3c0.1,0.2,0.1,0.3,0.2,0.5
		c1.1,0.5,2.2,1,3.4,1.4c1.9,0.6,3.5-0.9,3-2.9c-0.1-0.3-0.6-0.7-0.9-0.6C45.9,95.2,44,95.8,42.1,96.3z"/>
	<path d="M85.5,110.1c-3.5,1.6-6.7,2.4-10.2,2c-1-0.1-2-0.3-2-1.8c0-1.3,0.8-1.5,1.9-1.9c2-0.6,3.7-0.1,5.5,0.4
		C82.2,109.2,83.7,109.6,85.5,110.1z M80.4,110.6c0-0.2,0-0.3,0-0.5c-1.5-0.3-3.1-0.7-4.6-1c-0.2,0-0.5,0-0.6,0.1
		c-0.3,0.2-0.6,0.5-0.6,0.8c0,0.2,0.4,0.6,0.7,0.6C77,110.7,78.7,110.6,80.4,110.6z"/>
	<path d="M52.9,106.7c-1.8,1.6-3.8,2.7-5.9,3.1c-0.8,0.2-1.9-0.2-2.7-0.6c-1.3-0.6-2.5-1.5-4.1-2.5C44.7,107,48.5,104.8,52.9,106.7z
		 M48.4,107.4c-1.2,0-2.3,0-3.7,0C46.3,108.7,46.8,108.8,48.4,107.4z"/>
	<path d="M79.5,97.4c-0.2,0.2-0.3,0.5-0.6,0.7c-0.8,0.7-1.5,1.4-2.3,1.9c-2.2,1.5-2.7,1.5-4.5-0.2c-0.2-0.2-0.4-0.8-0.3-1
		c1.2-1.4,2.4-2.7,3.6-4c0.1-0.1,0.5-0.2,0.6-0.2c1.1,0.7,2.2,1.4,3.2,2.2C79.4,96.9,79.4,97.2,79.5,97.4z M78,97.5
		c-0.9-0.5-1.6-1.2-1.9-1.1c-0.7,0.4-1.3,1.1-1.9,1.8c-0.1,0.1,0.9,1.2,1,1.1C76.1,98.9,76.8,98.3,78,97.5z"/>
	<path d="M81.1,116c-1.6,2.6-4.1,3.8-7,4c-1.5,0.1-1.9-0.6-1.4-2.1c0.4-1,1-1.7,2-1.8c2.1-0.3,4.1-0.4,6.2-0.6
		C81,115.6,81.1,115.8,81.1,116z M73.9,118.4c1.8,0.2,3.1,0.4,4.1-1.2C76.5,116.8,75.2,116.9,73.9,118.4z"/>
	<path d="M67.3,85.4c1.9,1.6,3.2,3.2,4,5.1s0.4,3.7-1.2,4.9c-0.3,0.2-0.6,0.2-1,0.3c0-0.2-0.1-0.5-0.1-0.7c0-1.3-0.1-2.6,0-3.9
		C69.3,89,68.2,87.4,67.3,85.4z"/>
	<path d="M62.3,85.2c-3.4-0.4-4.7-2.6-5.4-5.2c-0.3-1-0.5-2.1-0.5-3.3C58.3,79.4,60.2,82.2,62.3,85.2z"/>
	<path d="M101.2,117.2c0,2.8-1,3.7-3,3.2c-1.4-0.3-1.9-1.5-1-2.6c0.4-0.5,0.8-1.1,1.4-1.4c0.7-0.3,1.5-0.6,2.2-0.5
		C101,116,101.2,117.1,101.2,117.2z"/>
	<path d="M60.4,91.4c-1.8,0-3.5-2.7-2.8-3.9c0.1-0.2,0.5-0.3,0.7-0.2c1.6,0.7,3.2,1.4,4.7,2.1c0.5,0.2,0.6,0.7,0,1
		C62,90.8,61,91.2,60.4,91.4z"/>
	<path d="M62.7,129.7c1.7-1.5,3.3-3,5-4.4c0.4-0.4,1-0.5,1.6-0.7c0.3-0.1,0.8,0,0.9,0.1c0.1,0.3,0.1,0.8-0.1,1
		c-0.8,0.8-1.6,1.7-2.6,2.3c-1.4,0.9-3,1.5-4.5,2.2C63,130,62.8,129.9,62.7,129.7z"/>
	<path d="M81.5,105.1c-0.6,0-0.8,0-0.9,0c-0.8-0.3-1.6-0.5-2.4-0.8c0.5-0.7,0.9-1.5,1.6-2c0.5-0.4,1.7-0.6,2-0.3
		c0.5,0.6,0.8,1.5,0.8,2.3C82.6,104.6,81.7,105,81.5,105.1z"/>
	<path d="M64.2,110c1.1-1.4,2.6-1.6,4.2-1.4c0.4,0,1,0.7,1,1c0,0.4-0.6,1.1-0.9,1.1c-1.4,0.1-2.8-0.1-4.2-0.1
		C64.2,110.4,64.2,110.2,64.2,110z"/>
	<path d="M64.9,93.4c0.2,2.6-0.6,3.7-2.3,3.3c-0.5-0.1-1-0.6-1.3-1c-0.1-0.2,0.4-0.9,0.8-1.1C62.9,94.1,63.9,93.8,64.9,93.4z"/>
	<path d="M55.1,94.2c0.9,0.9,1.5,1.8,1.2,2.8c-0.1,0.5-0.7,1-1.2,1.4c-0.2,0.1-1-0.1-1.1-0.3c-0.2-0.5-0.2-1.1,0-1.6
		C54.2,95.7,54.6,95.1,55.1,94.2z"/>
	<path d="M87.5,120.4c0.7,0,1.5,0,2.2,0c1.8,0,3,0.9,3.8,2.5c0.1,0.3,0,0.7,0,1.1c-0.4-0.1-0.8-0.1-1.2-0.2c-0.1,0-0.7-0.1-0.7-0.2
		C91.3,120.6,90.1,121,87.5,120.4z"/>
	<path d="M61.8,114.4c-1.8,0.2-3.4,0.3-5.2,0.5C58,112.9,58.8,112.9,61.8,114.4z"/>
	<path d="M57.5,102.4c-1.1,1-2.2,1.7-3.6,1.3c-0.3-0.1-0.4-0.3-0.7-0.5c0.2-0.2,0.4-0.7,0.7-0.7C55,102.3,56.2,102.4,57.5,102.4z"/>
	<path d="M69.3,104.1c-1.6,0.4-3.1,0.7-4.9,1.1C66.2,103.4,67.8,103,69.3,104.1z"/>
	<path d="M52.3,111.9c0.9-0.7,1.9-1.5,2.8-2.2c0.1,0.2,0.3,0.3,0.4,0.5c-0.9,0.8-1.8,1.6-2.7,2.4C52.7,112.3,52.5,112.1,52.3,111.9z
		"/>
	<path d="M68.3,117.5c-0.6,0.9-1.3,1.9-1.9,2.8c-0.2-0.1-0.3-0.2-0.5-0.3c0.7-0.9,1.4-1.8,2.1-2.7C68.1,117.3,68.2,117.4,68.3,117.5
		z"/>
	<g>
		<path class="st2" d="M111.1,18c1.2,0.2,2.5,0.4,3.6,0.7c0.5,0.1,1.1,0.6,1.2,1.1c1.1,3.3,2.1,6.7,3.1,10c0.3,1,0.1,1.9-1.1,2.2
			c-0.1,0-0.2,0.2-0.4,0.2c-2.6,1.1-2.9,1-4.6-1.2c-2-2.6-4.2-5.1-6.3-7.6c-1.2-1.4-1.3-2.1,0.1-3.1C108.1,19.4,109.1,17.6,111.1,18
			z"/>
		<path class="st2" d="M98.5,37.3c-4.5-4.6-9-9.1-13.7-13.8c2.2-0.9,4.4-1.9,6.7-2.8c0.2-0.1,0.9,0.5,1.1,0.9c1.4,3,2.8,6.1,4,9.2
			c0.8,2.1,1.5,4.2,2.2,6.3C98.8,37.1,98.7,37.2,98.5,37.3z"/>
		<path class="st2" d="M76.3,40.1c-1.4-1.4-2.9-2.9-4.3-4.3c-0.7-0.7-0.5-1.2,0-1.9c0.6-0.7,1.2-1.5,1.8-2.2
			c0.2,0.1,0.4,0.2,0.6,0.2c0.8,2.6,1.6,5.2,2.4,7.9C76.7,39.9,76.5,40,76.3,40.1z"/>
		<path class="st2" d="M121,40.7c-0.8-0.5-1.2-0.6-1.4-0.9c-1-1.3-2-2.5-2.9-3.8c-1-1.5-1-1.7,0.7-2.5c0.5-0.2,1.1-0.4,1.7-0.5
			c0.2,0,0.7,0.3,0.7,0.5C120.3,35.7,120.6,37.9,121,40.7z"/>
		<path class="st2" d="M131.5,24.6c2,1.4,4,2.7,5.9,4.2c0.3,0.2,0.3,0.9,0.5,1.3c-0.4,0-0.8,0.1-1.2,0c-1.7-0.2-3-0.8-3.8-2.4
			c-0.5-0.9-3.3-3.9-3.9-4.7C129.1,22.8,131.3,24.8,131.5,24.6z"/>
		<path class="st2" d="M105.8,20.2c-0.4,0.2-1.1,0.5-1.3,0.3c-0.7-0.5-1.1-1.3-1.7-2c0,0,0.3-0.5,0.5-0.5c1.4,0,2.9,0,4.3,0
			C107.7,18.3,106.5,19.8,105.8,20.2z"/>
		<path class="st2" d="M79,27.1c0.7,0.5,1,0.6,1.3,0.9c3.1,3.2,6.1,6.4,9.2,9.6c1.5,1.6,3.1,3.1,4.7,4.6c1.4,1.4,1.3,1.8-0.1,3
			c-1.6,1.3-3.3,2.7-4.9,4c-1.1,0.9-1.9,0.9-2.7-0.4c-0.3-0.5-0.5-1.1-0.7-1.6c-2.2-6.2-4.4-12.3-6.6-18.5
			C79.1,28.3,79.1,27.9,79,27.1z"/>
		<path class="st2" d="M81.6,55.9c-0.2,0.4-0.5,0.8-0.8,1.2c-2.6,3-2.5,3-5.3,0.3c-1.6-1.5-3.3-2.9-4.8-4.5c-1.1-1.2-2-2.5-2.9-3.8
			c-0.5-0.7-0.6-1.4,0.6-1.7c1.3-0.3,2.4-1,3.7-1.3c0.5-0.1,1.4-0.1,1.8,0.3c2.9,2.5,5.3,5.4,7.2,8.7C81.3,55.3,81.5,55.5,81.6,55.9
			z"/>
		<path class="st2" d="M72.3,44.6c-1.8,0.9-3.2,1.7-4.7,2.4c-0.2,0.1-0.6,0.1-0.8,0c-1.2-0.7-1.7-3.2-1-4.5c1.5-2.7,1.8-2.7,4-0.6
			C70.6,42.8,71.4,43.7,72.3,44.6z"/>
		<path class="st2" d="M85.2,66c-1.6-1.4-3.1-2.8-4.7-4.1c-0.9-0.8-0.8-1.4,0-2.1c0.1-0.1,0.2-0.2,0.3-0.3c0.5-0.5,1.1-1.1,1.6-1.6
			c0.4,0.7,0.9,1.4,1.2,2.2c0.7,1.9,1.3,3.8,1.9,5.7C85.5,65.8,85.3,65.9,85.2,66z"/>
		<path class="st2" d="M140.9,54.6c-2.4-1.1-4.7-2.2-6.9-3.2c-1.3-0.6-2.5-1.1-3.8-1.5c-1-0.3-1.4-0.9-1.5-2
			c-0.4-4.2-1-8.4-1.5-12.5c-0.1-1.1-0.4-2.3-0.6-3.4c0-0.3,0.1-0.7,0.2-0.8c0.3-0.1,0.8,0,0.9,0.2c1.3,1.5,2.6,3,3.7,4.6
			c2.9,4.2,5.6,8.5,8.5,12.7C141,50.4,141.3,52.3,140.9,54.6z"/>
		<path class="st2" d="M64.5,62.4c0.7,1.7,1.5,3.3,2.3,5.2C63.5,66.2,63.5,66.2,64.5,62.4z"/>
		<path class="st2" d="M61.6,55.3c0.5,1.3,1,2.6,1.5,4c0,0.1-0.2,0.4-0.3,0.5s-0.5,0-0.5-0.2c-0.7-1.3-1.9-2.5-1.2-4.2
			C61.2,55.4,61.4,55.4,61.6,55.3z"/>
		<path class="st2" d="M84.7,76.4c0,0.4,0,0.7,0,1.1c0,0.9-0.6,1.2-1.3,0.8c-0.9-0.5-1.8-1-2.6-1.6c-1-0.7-1.8-1.5-2.8-2.1
			c-2.1-1.2-3-3.3-3.9-5.4c-0.6-1.3,0.4-2,1.2-2.8c0.8-0.8,1.3-0.1,1.8,0.4c2.3,2.2,4.7,4.4,6.9,6.7C84.6,74.2,84.8,76.3,84.7,76.4z
			"/>
		<path class="st2" d="M71,60.9c1,1,2.1,2,3,3c0.2,0.3,0.3,0.9,0.2,1.3c-0.2,0.6-0.7,1-1.3,1.9c-0.9-2.1-1.6-4-2.4-5.8
			C70.6,61.2,70.8,61,71,60.9z"/>
		<path class="st2" d="M66.9,77.7c-1.2-0.7-2.5-1.2-3.6-2c-0.5-0.4-0.8-1.3-0.8-2c0-0.9,0.5-1.3,1.4-0.6c0.9,0.7,1.8,1.2,2.7,1.9
			C68,76.1,68,76.3,66.9,77.7z"/>
		<path class="st2" d="M150.6,75.8c2.2,4.5-0.3,7.6-2,10.8C147.8,82.9,149.3,79.7,150.6,75.8z"/>
		<path class="st2" d="M123.3,104.8c1.1,4.6,0.5,4.6-4.9,5.6C120.2,108.4,121.7,106.6,123.3,104.8z"/>
		<path class="st2" d="M134.7,30.4c4.1,0.5,5.4,2.4,4.8,6.8C137.8,34.9,136.3,32.8,134.7,30.4z"/>
		<path class="st2" d="M140,97.9c0.4-1,0.9-2,1.4-3.1C142.4,96,142.3,96.3,140,97.9z"/>
		<path class="st2" d="M96.6,45.1c4,2.1,4.4,6,5.2,9.5c0.9,3.8,0.4,7.7,0.5,11.9c-0.7-0.4-1.1-0.6-1.4-1c-3.1-3.1-6.3-6.1-9.3-9.4
			c-1.1-1.2-1.6-2.9-2.3-4.4c-0.1-0.2,0.2-0.8,0.5-1C92.1,48.8,94.4,46.9,96.6,45.1z"/>
		<path class="st2" d="M120.8,56.4c0,1.2,0,2.5,0,3.7c0,0.4-0.2,0.8-0.4,1.1c-0.4-0.2-0.8-0.3-1.1-0.6c-0.5-0.5-1.1-1-1.5-1.6
			c-2.8-3.2-5.4-6.5-8.3-9.5c-1.3-1.4-2.1-2.9-2.4-4.7c-0.3-1.5-0.6-3-0.8-4.5c-0.1-0.4,0.1-1.2,0.4-1.3c0.4-0.2,1.2-0.1,1.6,0.2
			c3,2.3,6.1,4.5,8.8,7.1c2.2,2.1,4.1,4.6,3.7,8C120.8,55.1,120.8,55.7,120.8,56.4L120.8,56.4z"/>
		<path class="st2" d="M103.9,29.4c1.1,0.8,4.1,3.6,4.3,5.2c-0.8,0.6-1.3,1.8-1.9,1.4C105.1,35.1,104.2,31.3,103.9,29.4z"/>
		<path class="st2" d="M110.6,36.8c0.7,0.8,2.8,3.9,3.8,5c-2.3-1.1-5-2.9-5.5-3.8C109,37.9,110.5,37,110.6,36.8z"/>
		<path class="st2" d="M131.4,52.4c3.3,0.7,6.1,2.1,8.6,3.9c1.3,0.9,0.6,2.4,0.4,3.6c-0.1,0.7-0.6,1.3-1,2.3c-1.4-1.7-2.7-3.2-4-4.8
			C134.2,55.8,132.1,54.8,131.4,52.4z"/>
		<path class="st2" d="M132.9,77.5c-2.5-1.8-4-4-5-6.5c-0.1-0.1-0.2-0.3-0.2-0.4c0-3.8,0-7.5,0.4-11.5c1.3,1.3,2.7,2.6,3.9,4
			c0.9,1,1.6,2.2,2.5,3.3c1.6,2,1.8,4.1,0.7,6.3C134.6,74.3,133.8,75.8,132.9,77.5z"/>
		<path class="st2" d="M123.9,82.5c1.1,1.6,1.9,2.9,2.7,4c0.8,1,0.7,1.8,0.1,2.8c-0.5,0.7-0.9,1.5-1.5,2.6c-1.1-1.2-2.1-2.2-3-3.4
			c-0.2-0.3-0.4-0.8-0.2-1.1C122.4,85.9,123.1,84.4,123.9,82.5z"/>
		<path class="st2" d="M125.1,78.1c2,1.9,4.2,3.7,3.2,7.2c-1.2-1.9-2.3-3.3-3.2-4.9C124.8,79.8,125.1,78.9,125.1,78.1z"/>
		<path class="st2" d="M94.4,83.7c1.9,1.3,3.3,2.6,4.1,4.4c0.7,1.3,0,3.1-1.4,3.6c-0.3,0.1-0.7,0-0.9-0.2c-0.8-0.7-1.6-1.4-1.5-2.7
			C94.7,87.2,94.5,85.6,94.4,83.7z"/>
		<path class="st2" d="M92.2,86.7c-0.4-0.5-1.1-0.9-1.1-1.4c-0.1-1.1,0.2-2.3,0.3-3.4c0-0.1,0.8-0.2,0.8,0c0.2,0.4,0.4,0.9,0.5,1.4
			c0.1,1.1,0,2.1,0,3.2C92.5,86.5,92.4,86.6,92.2,86.7z"/>
		<path class="st2" d="M95.4,105.1c0.9,1.7,1.7,3,2.3,4.5c0.5,1.1,0.1,1.6-1,1.3c-1.3-0.3-2.5-0.8-3.7-1.1c-0.6-0.2-0.9-0.5-0.4-1.1
			C93.3,107.5,94.3,106.4,95.4,105.1z"/>
		<path class="st2" d="M150.2,55c-1.5-2.3-2.6-6.4-2.4-8.4C149.3,49.2,150,52.1,150.2,55z"/>
		<path class="st2" d="M108.9,82.4c0.9,1.2,1.8,2.4,2.7,3.6c2.7,3.5,2.7,3.6,0,7.4c-1.2-1.2-2.4-2.3-3.5-3.5
			c-0.4-0.4-0.6-1.2-0.6-1.8c0.2-1.8,0.6-3.7,0.9-5.5C108.5,82.5,108.7,82.5,108.9,82.4z"/>
		<path class="st2" d="M74.3,84.7c0.2-1.4,0.4-2.6,0.6-3.7c0.1-0.8,0.5-0.9,1.2-0.6c2.3,0.9,4,2.6,5.6,4.5c0.5,0.6,1.3,1.6,1.2,2.2
			c-0.3,1.3-1,2.5-1.7,3.8c-0.1,0.1-0.8,0.2-1.1,0c-1.8-1.6-3.7-3.1-5.4-4.8C74.3,85.7,74.4,85,74.3,84.7z"/>
		<path class="st2" d="M86.1,98.1c0.6-1.5,1.3-3.1,2-4.6c0.1-0.1,0.8-0.2,1,0c1,1.1,2,2.3,3,3.5c0.2,0.3,0.1,0.9-0.1,1.2
			c-0.9,1.3-1.9,2.6-2.9,3.9c-0.6,0.8-1.2,0.7-1.5-0.4C87.2,100.5,86.6,99.4,86.1,98.1z"/>
		<path class="st2" d="M137.4,87.9c-0.3-1.3-1-2.7-0.7-3.7c0.7-1.8,1.3-3.9,3.1-5.2c2.2,3.7-0.5,6.1-1.7,8.9
			C137.8,87.9,137.6,87.9,137.4,87.9z"/>
		<path class="st2" d="M129.4,101.2c-1.2-2.5,0.5-4.1,1.2-6c0-0.1,0.9-0.1,1,0c0.3,0.7,0.8,1.6,0.6,2.2
			C131.6,98.9,130.8,100.2,129.4,101.2z"/>
		<path class="st2" d="M104.4,95.2c0.2,0.2,0.4,0.5,0.7,0.7c3,2.8,3,3.1,0.6,6.1c-0.5,0.7-1.3,1.1-2,1.6c-0.5-0.7-1-1.4-1.4-2.2
			c-0.3-0.5-0.4-1.1-0.5-1.7c-0.2-0.6-0.7-1.6-0.5-1.9c0.8-1,1.8-1.9,2.8-2.8C104.1,95.3,104.2,95.3,104.4,95.2z"/>
		<path class="st2" d="M146.5,63.5c1.9,4-1,6.7-1.6,10.1c-1.1-1-1.5-1.9-1.1-3.1c0.7-2,1.4-4,2.1-5.9
			C145.9,64.3,146.2,64,146.5,63.5z"/>
		<path class="st2" d="M106.2,112.1c0.3-0.9,0.4-1.3,0.6-1.6c1-1.2,2.1-2.4,3.2-3.6c0.2-0.2,0.5-0.3,0.8-0.3c0.1,0,0.3,0.3,0.3,0.5
			c0.1,1.7-1,3-2,4.2C108.5,111.9,107.4,111.8,106.2,112.1z"/>
		<path class="st2" d="M116.3,102.5c-1.4-1-1.5-1.9-0.5-3.1c0.9-1.2,1.4-2.7,2.2-4c0.4-0.6,0.8-0.8,1.3-0.1c1.2,1.4,1.2,1.8,0,3.4
			C118.4,100,117.4,101.2,116.3,102.5z"/>
		<path class="st2" d="M78,97.5c-1.1,0.8-1.9,1.4-2.8,1.8c-0.1,0.1-1-1-1-1.1c0.5-0.7,1.1-1.4,1.9-1.8C76.4,96.3,77.1,97,78,97.5z"
			/>
		<path class="st2" d="M109.6,61.7c1.3,1.9,2.6,3.5,3.8,5.2c1.7,2.3,3.3,4.6,4.9,7c0.3,0.4,0.6,1.1,0.5,1.6
			c-0.4,1.6-0.9,3.2-1.4,4.8c-0.2,0.8-0.7,0.9-1.3,0.4c-2.1-2.1-4.3-4.2-6.3-6.4c-0.3-0.3-0.5-0.9-0.5-1.4c0-3.4,0-6.9,0-10.3
			C109.3,62.4,109.4,62.2,109.6,61.7z"/>
		<path class="st2" d="M91.6,64.5c2.3,2.6,8.1,8.4,10.3,11.1c0.6,0.7,0.4,2.1,0.5,3.1c0,0.5-0.2,1-0.3,1.5c-0.1,0.5-0.3,1.1-0.5,1.6
			c-0.5-0.3-1.2-0.6-1.6-1c-1.1-1.1-1.9-2.4-3.1-3.4C92.3,72.7,91.4,64.6,91.6,64.5z"/>
		<polygon class="st2" points="119.5,72.7 111.5,60.6 120,71.1 		"/>
	</g>
</g>
<path class="st2" d="M198.9,133.3h-50.2l36.6-118.2H234l-10.6,34.2h-14l-2.1,6.7h13.1l-10.3,33.2H197l-3,9.8h15.4L198.9,133.3z
	 M152.7,130.3h44l8.7-28.2H190l4.9-15.9H208l8.4-27.2h-13.1l3.9-12.7h14l8.7-28.2h-42.6L152.7,130.3z"/>
<path class="st0" d="M253.9,130.3h61.4l21.9-112.2h-37.1L266.4,100c0,0,3.2-11.3,3.4-16.6c0.1-3.6-0.7-6.3-0.9-7.1
	c-0.3-1.6-1-3.1-2-4.4l-0.9-1.3l1.3-0.9c1.3-0.9,2.5-1.9,3.5-2.9c2.6-2.8,4.9-7.5,7-14.2c3-9.7,4-16.8,3-21.5
	c-1.3-6.6-5-9.4-7.8-10.7c-3.5-1.6-8.7-2.3-15.9-2.3h-23.6L199,130.3h29.2c9.1,0,15.1-0.7,18.7-2.1c2.5-1,4.7-2.5,6.8-4.6l5.4-5.5
	L253.9,130.3z"/>
<path class="st1" d="M332.9,21.7l-20.5,105h-21.5l4.7-18.9h-7.5l-7.1,18.9h-21.7l43.2-105C302.5,21.7,332.9,21.7,332.9,21.7z
	 M300.9,89.2c2.6-11.9,6.1-26.6,10.4-44.1c-8.4,20.1-14.2,34.8-17.7,44.1H300.9z"/>
<path class="st1" d="M236.3,21.7h20.9c6.6,0,11.4,0.7,14.4,2s4.9,4,5.7,8.1c0.8,4.1-0.2,10.7-3,19.7c-1.9,6.1-4,10.4-6.2,12.8
	s-5.7,4.3-10.5,5.6c4.4,1.4,7,3.8,7.7,7.1c0.7,3.3,0,8.4-2.1,15.2l-3,9.7c-2.2,7.1-4.4,12.3-6.7,15.8c-2.3,3.4-5,5.8-8.1,7
	c-3.1,1.3-8.9,1.9-17.3,1.9h-24.3L236.3,21.7z M251.8,39.6L244.6,63c0.9,0,1.6-0.1,2.1-0.1c2.1,0,3.6-0.7,4.6-2s2.4-5.1,4.3-11.3
	c1-3.3,1.5-5.6,1.4-6.9c-0.1-1.3-0.4-2.1-1-2.5C255.3,39.9,253.9,39.7,251.8,39.6z M239.5,79.3l-9.1,29.4c3-0.1,5.1-0.7,6.2-1.8
	c1.1-1.1,2.4-3.7,3.7-8l3-9.8c1.4-4.5,1.9-7.2,1.4-8.2C244.3,80,242.6,79.4,239.5,79.3z"/>
<path class="st2" d="M317.8,133.3h-68.4l1.6-3.9c-1,0.6-2.1,1.1-3.1,1.6c-4,1.6-10.3,2.4-19.8,2.4h-33.2l36.6-118.2h25.8
	c7.6,0,13.2,0.8,17.1,2.6c3.5,1.5,7.9,5,9.5,12.8c1.1,5.2,0,12.8-3.1,23c-2.2,7.2-4.7,12.2-7.6,15.4c-0.8,0.9-1.8,1.8-2.8,2.5
	c0.8,1.3,1.3,2.8,1.6,4.3c0.1,0.6,0.2,1.6,0.1,2.7l26-63.3h42.8L317.8,133.3z M253.9,130.3h61.4l21.9-112.2h-37.1L266.4,100
	c0,0,3.2-11.3,3.4-16.6c0.1-3.6-0.7-6.3-0.9-7.1c-0.3-1.6-1-3.1-2-4.4l-0.9-1.3l1.3-0.9c1.3-0.9,2.5-1.9,3.5-2.9
	c2.6-2.8,4.9-7.5,7-14.2c3-9.7,4-16.8,3-21.5c-1.3-6.6-5-9.4-7.8-10.7c-3.5-1.6-8.7-2.3-15.9-2.3h-23.6L199,130.3h29.2
	c9.1,0,15.1-0.7,18.7-2.1c2.5-1,4.7-2.5,6.8-4.6l5.4-5.5L253.9,130.3z"/>
<polygon class="st2" points="329.3,187.5 6.8,187.5 13.5,143.6 336,143.6 "/>
<g>
	<path class="st0" d="M24.9,152.4H33l-0.8,4.9h-3.3l-0.7,4.6h3l-0.7,4.6h-3l-0.8,5.4h3.6l-0.8,4.9h-8.4L24.9,152.4z"/>
	<path class="st0" d="M43.6,156.8l-5.3,20h-6.1l0.8-20h4.2l-1,14.6c0.3-1.1,0.9-3.7,1.8-7.8c0.5-2.3,1-4.6,1.5-6.7L43.6,156.8
		L43.6,156.8z"/>
	<path class="st0" d="M47.2,164.5h-4.4l0.2-1.3c0.2-1.5,0.6-2.7,1-3.6c0.4-0.8,1.1-1.6,2-2.2s2.1-1,3.4-1c1.6,0,2.7,0.4,3.4,1.1
		c0.7,0.7,1,1.6,1,2.7s-0.3,3.2-0.8,6.5l-1.6,10h-4.5l0.3-1.8c-0.4,0.7-0.9,1.2-1.4,1.6c-0.5,0.4-1.1,0.5-1.7,0.5
		c-0.8,0-1.5-0.3-2.1-0.9c-0.6-0.6-0.7-1.9-0.4-3.9l0.3-1.6c0.2-1.5,0.6-2.5,1-3.1c0.4-0.5,1.4-1.2,3-1.9c1.7-0.8,2.6-1.3,2.7-1.6
		c0.2-0.3,0.3-0.8,0.4-1.7c0.2-1,0.2-1.7,0.1-2c-0.1-0.3-0.2-0.5-0.5-0.5s-0.5,0.1-0.7,0.4c-0.1,0.3-0.3,1-0.4,2.1L47.2,164.5z
		 M48.2,167.2c-0.9,0.7-1.4,1.3-1.6,1.8c-0.2,0.5-0.4,1.2-0.5,2.1c-0.2,1-0.2,1.7-0.2,2c0.1,0.3,0.2,0.5,0.5,0.5s0.5-0.1,0.6-0.4
		c0.1-0.2,0.3-0.9,0.4-1.9L48.2,167.2z"/>
	<path class="st0" d="M60.9,156.8l-0.3,1.8c0.5-0.7,1-1.3,1.5-1.7c0.5-0.4,1.1-0.6,1.8-0.6c0.8,0,1.4,0.2,1.9,0.7
		c0.4,0.5,0.7,1.1,0.7,1.9c0,0.7-0.1,2-0.4,3.7l-2.2,14h-4.7l2.2-13.8c0.2-1.4,0.3-2.2,0.3-2.5c0-0.3-0.2-0.5-0.5-0.5
		c-0.3,0-0.6,0.2-0.7,0.5c-0.1,0.3-0.3,1.3-0.6,2.8l-2.1,13.5h-4.7l3.2-20h4.6V156.8z"/>
	<path class="st0" d="M77.1,163.1H73l0.2-1.1c0.1-0.9,0.2-1.5,0.2-1.8c0-0.2-0.2-0.4-0.5-0.4s-0.5,0.1-0.6,0.3
		c-0.2,0.2-0.3,0.6-0.4,1c-0.1,0.6-0.1,1.1-0.1,1.3c0,0.3,0.2,0.6,0.4,0.9c0.3,0.3,0.9,0.8,1.8,1.5c1.2,0.9,2,1.7,2.3,2.4
		c0.3,0.8,0.3,1.9,0.1,3.3c-0.3,1.6-0.6,2.9-1.1,3.7s-1.1,1.5-1.9,1.9c-0.8,0.4-1.8,0.7-2.9,0.7c-1.2,0-2.2-0.2-2.9-0.7
		c-0.8-0.5-1.2-1.1-1.4-2c-0.2-0.8-0.1-2.1,0.1-3.7l0.2-1h4.1l-0.2,1.3c-0.2,1.1-0.2,1.8-0.2,2.1c0.1,0.3,0.2,0.5,0.5,0.5
		s0.6-0.1,0.7-0.3c0.2-0.2,0.3-0.7,0.4-1.4c0.2-1,0.2-1.5,0-1.8c-0.1-0.2-0.9-1-2.4-2.1c-1.2-1-1.9-1.9-2.1-2.7
		c-0.2-0.8-0.2-1.8,0-2.9c0.3-1.6,0.6-2.8,1-3.5c0.4-0.8,1.1-1.3,1.9-1.8c0.8-0.4,1.8-0.6,2.8-0.6s1.9,0.2,2.5,0.5
		c0.7,0.3,1.1,0.8,1.4,1.3c0.3,0.6,0.4,1.1,0.5,1.5c0,0.5-0.1,1.2-0.2,2.2L77.1,163.1z"/>
	<path class="st0" d="M89.4,156.8l-5.3,20H78l0.8-20H83l-1,14.6c0.3-1.1,0.9-3.7,1.8-7.8c0.5-2.3,1-4.6,1.5-6.7L89.4,156.8
		L89.4,156.8z"/>
	<path class="st0" d="M94.9,156.8l-3.2,20h-4.8l3.2-20H94.9z M95.6,152.4l-0.5,3.2h-4.8l0.5-3.2H95.6z"/>
	<path class="st0" d="M102.1,152.4l-3.8,24.4h-4.9l3.8-24.4C97.2,152.4,102.1,152.4,102.1,152.4z"/>
	<path class="st0" d="M108.6,152.4l-3.8,24.4H100l3.8-24.4C103.8,152.4,108.6,152.4,108.6,152.4z"/>
	<path class="st0" d="M118.5,167.1h-6.1l-0.7,4.3c-0.1,0.9-0.2,1.5-0.1,1.7c0.1,0.3,0.2,0.4,0.5,0.4c0.4,0,0.6-0.2,0.8-0.5
		c0.2-0.3,0.3-1,0.5-2l0.4-2.6h4.4l-0.2,1.5c-0.2,1.2-0.4,2.2-0.6,2.8c-0.2,0.7-0.6,1.4-1.2,2.1c-0.6,0.8-1.2,1.3-1.9,1.7
		c-0.7,0.4-1.6,0.6-2.6,0.6s-1.8-0.2-2.5-0.6c-0.7-0.4-1.2-0.9-1.5-1.5c-0.3-0.6-0.5-1.4-0.5-2.1c0-0.8,0.1-1.9,0.3-3.4l0.9-5.8
		c0.3-1.7,0.7-3.1,1.2-4.1s1.2-1.8,2.1-2.3s1.9-0.8,3-0.8c1.3,0,2.3,0.3,3.1,1c0.8,0.6,1.2,1.5,1.4,2.6c0.2,1.1,0.1,2.6-0.2,4.5
		L118.5,167.1z M114.4,163.9l0.2-1.5c0.2-1,0.2-1.7,0.2-2s-0.2-0.5-0.4-0.5c-0.3,0-0.5,0.1-0.7,0.4c-0.1,0.3-0.3,0.9-0.4,2.1
		l-0.2,1.5H114.4z"/>
	<path class="st0" d="M126.7,152.4h4.9c1.5,0,2.7,0.2,3.4,0.5s1.3,0.9,1.6,1.9c0.3,0.9,0.3,2.5,0,4.6c-0.2,1.4-0.6,2.4-1,3
		s-1.2,1-2.2,1.3c1.1,0.3,1.8,0.9,2,1.6c0.3,0.8,0.3,1.9,0,3.5l-0.4,2.3c-0.3,1.6-0.6,2.9-1,3.7c-0.4,0.8-1,1.3-1.6,1.6
		c-0.7,0.3-2,0.4-4,0.4h-5.6L126.7,152.4z M129.5,165.8l-1.1,6.8c0.7,0,1.2-0.2,1.4-0.4s0.4-0.9,0.6-1.9l0.4-2.3
		c0.2-1,0.2-1.7,0-1.9S130.2,165.8,129.5,165.8z M130.9,156.5l-0.9,5.4c0.2,0,0.4,0,0.5,0c0.5,0,0.8-0.2,1-0.5s0.4-1.2,0.6-2.6
		c0.1-0.8,0.2-1.3,0.1-1.6c-0.1-0.3-0.2-0.5-0.3-0.6C131.8,156.6,131.4,156.6,130.9,156.5z"/>
	<path class="st0" d="M141.9,164.5h-4.4l0.2-1.3c0.2-1.5,0.6-2.7,1-3.6c0.4-0.8,1.1-1.6,2-2.2s2.1-1,3.4-1c1.6,0,2.7,0.4,3.4,1.1
		c0.7,0.7,1,1.6,1,2.7s-0.3,3.2-0.8,6.5l-1.6,10h-4.5l0.3-1.8c-0.4,0.7-0.9,1.2-1.4,1.6c-0.5,0.4-1.1,0.5-1.7,0.5
		c-0.8,0-1.5-0.3-2.1-0.9c-0.6-0.6-0.7-1.9-0.4-3.9l0.3-1.6c0.2-1.5,0.6-2.5,1-3.1c0.4-0.5,1.4-1.2,3-1.9c1.7-0.8,2.6-1.3,2.7-1.6
		c0.2-0.3,0.3-0.8,0.4-1.7c0.2-1,0.2-1.7,0.1-2c-0.1-0.3-0.2-0.5-0.5-0.5s-0.5,0.1-0.7,0.4c-0.1,0.3-0.3,1-0.4,2.1L141.9,164.5z
		 M143,167.2c-0.9,0.7-1.4,1.3-1.6,1.8c-0.2,0.5-0.4,1.2-0.5,2.1c-0.2,1-0.2,1.7-0.2,2c0.1,0.3,0.2,0.5,0.5,0.5s0.5-0.1,0.6-0.4
		c0.1-0.2,0.3-0.9,0.4-1.9L143,167.2z"/>
	<path class="st0" d="M159.5,163.1h-4.1l0.2-1.1c0.1-0.9,0.2-1.5,0.2-1.8c0-0.2-0.2-0.4-0.5-0.4s-0.5,0.1-0.6,0.3
		c-0.2,0.2-0.3,0.6-0.4,1c-0.1,0.6-0.1,1.1-0.1,1.3c0,0.3,0.2,0.6,0.4,0.9c0.3,0.3,0.9,0.8,1.8,1.5c1.2,0.9,2,1.7,2.3,2.4
		c0.3,0.8,0.3,1.9,0.1,3.3c-0.3,1.6-0.6,2.9-1.1,3.7s-1.1,1.5-1.9,1.9c-0.8,0.4-1.8,0.7-2.9,0.7c-1.2,0-2.2-0.2-2.9-0.7
		c-0.8-0.5-1.2-1.1-1.4-2c-0.2-0.8-0.1-2.1,0.1-3.7l0.2-1h4.1l-0.2,1.3c-0.2,1.1-0.2,1.8-0.2,2.1c0.1,0.3,0.2,0.5,0.5,0.5
		s0.6-0.1,0.7-0.3c0.2-0.2,0.3-0.7,0.4-1.4c0.2-1,0.2-1.5,0-1.8c-0.1-0.2-0.9-1-2.4-2.1c-1.2-1-1.9-1.9-2.1-2.7
		c-0.2-0.8-0.2-1.8,0-2.9c0.3-1.6,0.6-2.8,1-3.5c0.4-0.8,1.1-1.3,1.9-1.8c0.8-0.4,1.8-0.6,2.8-0.6s1.9,0.2,2.5,0.5
		c0.7,0.3,1.1,0.8,1.4,1.3c0.3,0.6,0.4,1.1,0.5,1.5c0,0.5-0.1,1.2-0.2,2.2L159.5,163.1z"/>
	<path class="st0" d="M172.1,156.8l-3.2,8l0.6,12H165l-0.1-8.7l-1.4,8.7h-4.7l3.8-24.4h4.7l-1.5,10.2l2.4-5.8H172.1z"/>
	<path class="st0" d="M182.4,167.1h-6.1l-0.7,4.3c-0.1,0.9-0.2,1.5-0.1,1.7c0.1,0.3,0.2,0.4,0.5,0.4c0.4,0,0.6-0.2,0.8-0.5
		s0.3-1,0.5-2l0.4-2.6h4.4l-0.2,1.5c-0.2,1.2-0.4,2.2-0.6,2.8c-0.2,0.7-0.6,1.4-1.2,2.1c-0.6,0.8-1.2,1.3-1.9,1.7
		c-0.7,0.4-1.6,0.6-2.6,0.6s-1.8-0.2-2.5-0.6c-0.7-0.4-1.2-0.9-1.5-1.5c-0.3-0.6-0.5-1.4-0.5-2.1c0-0.8,0.1-1.9,0.3-3.4l0.9-5.8
		c0.3-1.7,0.7-3.1,1.2-4.1s1.2-1.8,2.1-2.3c0.9-0.5,1.9-0.8,3-0.8c1.3,0,2.3,0.3,3.1,1c0.8,0.6,1.2,1.5,1.4,2.6
		c0.2,1.1,0.1,2.6-0.2,4.5L182.4,167.1z M178.2,163.9l0.2-1.5c0.2-1,0.2-1.7,0.2-2s-0.2-0.5-0.4-0.5c-0.3,0-0.5,0.1-0.7,0.4
		c-0.1,0.3-0.3,0.9-0.4,2.1l-0.2,1.5H178.2z"/>
	<path class="st0" d="M190.9,154.1l-0.5,3.1h1.3l-0.5,3.2h-1.3l-1.7,10.7c-0.2,1.3-0.3,2-0.2,2.2c0.1,0.2,0.5,0.2,1.3,0.2l-0.5,3.2
		h-1.9c-1.1,0-1.8-0.1-2.3-0.2c-0.4-0.1-0.8-0.4-1.1-0.8s-0.4-0.9-0.4-1.4s0.2-1.8,0.5-3.8l1.6-10.1h-1l0.5-3.2h1l0.5-3.1H190.9z"/>
	<path class="st0" d="M198.1,152.4l-0.9,5.8c0.5-0.6,1-1,1.5-1.3s1.1-0.4,1.6-0.4c0.6,0,1.2,0.1,1.6,0.4c0.4,0.3,0.7,0.6,0.9,1.1
		s0.2,0.9,0.2,1.4s-0.1,1.4-0.4,2.9l-1.4,9c-0.2,1.5-0.5,2.6-0.7,3.3c-0.3,0.7-0.7,1.3-1.4,1.9s-1.3,0.8-2.1,0.8
		c-0.5,0-1-0.2-1.5-0.5c-0.5-0.3-0.8-0.8-1.1-1.4l-0.5,1.5h-4.4l3.8-24.4h4.8V152.4z M197.9,162.4c0.2-1,0.2-1.7,0.2-2
		c-0.1-0.3-0.2-0.5-0.5-0.5s-0.5,0.1-0.6,0.4c-0.1,0.3-0.3,1-0.5,2.1l-1.4,8.6c-0.2,1.1-0.2,1.8-0.2,2.1c0,0.3,0.2,0.5,0.5,0.5
		s0.5-0.2,0.6-0.5c0.1-0.3,0.3-1.1,0.5-2.2L197.9,162.4z"/>
	<path class="st0" d="M208,164.5h-4.4l0.2-1.3c0.2-1.5,0.6-2.7,1-3.6c0.4-0.8,1.1-1.6,2-2.2s2.1-1,3.4-1c1.6,0,2.7,0.4,3.4,1.1
		c0.7,0.7,1,1.6,1,2.7s-0.3,3.2-0.8,6.5l-1.6,10h-4.5l0.3-1.8c-0.4,0.7-0.9,1.2-1.4,1.6c-0.5,0.4-1.1,0.5-1.7,0.5
		c-0.8,0-1.5-0.3-2.1-0.9c-0.6-0.6-0.7-1.9-0.4-3.9l0.3-1.6c0.2-1.5,0.6-2.5,1-3.1c0.4-0.5,1.4-1.2,3-1.9c1.7-0.8,2.6-1.3,2.7-1.6
		c0.2-0.3,0.3-0.8,0.4-1.7c0.2-1,0.2-1.7,0.1-2c-0.1-0.3-0.2-0.5-0.5-0.5s-0.5,0.1-0.7,0.4c-0.1,0.3-0.3,1-0.4,2.1L208,164.5z
		 M209.1,167.2c-0.9,0.7-1.4,1.3-1.6,1.8c-0.2,0.5-0.4,1.2-0.5,2.1c-0.2,1-0.2,1.7-0.2,2c0.1,0.3,0.2,0.5,0.5,0.5s0.5-0.1,0.6-0.4
		s0.3-0.9,0.4-1.9L209.1,167.2z"/>
	<path class="st0" d="M222.5,152.4l-3.8,24.4h-4.8l3.8-24.4C217.7,152.4,222.5,152.4,222.5,152.4z"/>
	<path class="st0" d="M229,152.4l-3.8,24.4h-4.8l3.8-24.4C224.2,152.4,229,152.4,229,152.4z"/>
	<path class="st0" d="M243.4,152.4l-1,24.3h-5l0.4-4.4h-1.7l-1,4.4h-5l6.3-24.4h7V152.4z M238.4,168c0.2-2.8,0.5-6.2,0.9-10.2
		c-1.2,4.7-2.1,8.1-2.6,10.2C236.7,168,238.4,168,238.4,168z"/>
	<path class="st0" d="M255.4,164.3H251l0.4-2.3c0.1-0.8,0.2-1.3,0.1-1.6s-0.2-0.4-0.5-0.4s-0.5,0.1-0.6,0.4s-0.3,0.8-0.4,1.7
		l-1.5,9.4c-0.1,0.7-0.1,1.2,0,1.6c0.1,0.4,0.3,0.5,0.5,0.5c0.3,0,0.6-0.2,0.7-0.6c0.2-0.4,0.3-1.1,0.5-2.1l0.4-2.4h4.2
		c-0.3,1.6-0.5,2.8-0.7,3.6c-0.2,0.8-0.6,1.6-1.2,2.5c-0.6,0.8-1.2,1.5-2,1.9c-0.8,0.4-1.7,0.6-2.7,0.6c-1.3,0-2.3-0.3-3-0.9
		s-1.1-1.4-1.2-2.5c-0.2-1.1-0.1-2.6,0.2-4.5l0.9-5.7c0.3-1.7,0.6-3,1-3.8c0.4-0.9,1.1-1.6,2-2.3c1-0.7,2.1-1,3.3-1s2.2,0.3,3,1
		c0.8,0.7,1.2,1.5,1.3,2.5C255.7,161,255.7,162.4,255.4,164.3z"/>
	<path class="st0" d="M260.9,164.5h-4.4l0.2-1.3c0.2-1.5,0.6-2.7,1-3.6c0.4-0.9,1.1-1.6,2-2.2s2-1,3.4-1c1.6,0,2.7,0.4,3.4,1.1
		c0.7,0.7,1,1.6,1,2.7s-0.3,3.2-0.8,6.5l-1.6,10h-4.5l0.3-1.8c-0.4,0.7-0.9,1.2-1.4,1.6c-0.5,0.4-1.1,0.5-1.7,0.5
		c-0.8,0-1.5-0.3-2.1-0.9c-0.6-0.6-0.7-1.9-0.4-3.9l0.3-1.6c0.2-1.5,0.6-2.5,1-3.1c0.4-0.5,1.4-1.2,3-1.9c1.7-0.8,2.6-1.3,2.7-1.6
		c0.2-0.3,0.3-0.8,0.4-1.7c0.2-1,0.2-1.7,0.1-2s-0.2-0.5-0.5-0.5s-0.5,0.1-0.7,0.4c-0.1,0.3-0.3,1-0.4,2.1L260.9,164.5z
		 M261.9,167.2c-0.9,0.7-1.4,1.3-1.6,1.8s-0.4,1.2-0.5,2.1c-0.2,1-0.2,1.7-0.2,2c0.1,0.3,0.2,0.5,0.5,0.5s0.5-0.1,0.6-0.4
		s0.3-0.9,0.4-1.9L261.9,167.2z"/>
	<path class="st0" d="M281.2,152.4l-3.8,24.3h-4.7l0.2-1.4c-0.5,0.6-1.1,1.1-1.6,1.4s-1.1,0.5-1.6,0.5c-0.7,0-1.3-0.2-1.8-0.7
		s-0.7-1.1-0.8-1.7c0-0.7,0-1.7,0.3-3.2l1.5-9.3c0.2-1.5,0.5-2.6,0.7-3.3c0.3-0.6,0.7-1.2,1.3-1.7c0.6-0.5,1.3-0.7,2-0.7
		c0.6,0,1.1,0.1,1.5,0.4c0.4,0.3,0.8,0.7,1.1,1.2l0.9-5.7L281.2,152.4L281.2,152.4z M275.1,161.8c0.1-0.7,0.1-1.2,0.1-1.5
		c-0.1-0.2-0.2-0.4-0.5-0.4s-0.5,0.1-0.6,0.3s-0.3,0.7-0.4,1.5l-1.5,9.8c-0.1,0.8-0.2,1.3-0.1,1.6c0.1,0.3,0.2,0.4,0.5,0.4
		s0.5-0.1,0.7-0.4s0.3-1,0.5-2.1L275.1,161.8z"/>
	<path class="st0" d="M291.2,167.1h-6.1l-0.7,4.3c-0.1,0.9-0.2,1.5-0.1,1.7c0.1,0.3,0.2,0.4,0.5,0.4c0.4,0,0.6-0.2,0.8-0.5
		c0.2-0.3,0.3-1,0.5-2l0.4-2.6h4.4l-0.2,1.5c-0.2,1.2-0.4,2.2-0.6,2.8c-0.2,0.7-0.6,1.4-1.2,2.1c-0.6,0.8-1.2,1.3-1.9,1.7
		c-0.7,0.4-1.6,0.6-2.6,0.6s-1.8-0.2-2.5-0.6c-0.7-0.4-1.2-0.9-1.5-1.5c-0.3-0.6-0.5-1.4-0.5-2.1s0.1-1.9,0.3-3.4l0.9-5.8
		c0.3-1.7,0.7-3.1,1.2-4.1s1.2-1.8,2.1-2.3s1.9-0.8,3-0.8c1.3,0,2.3,0.3,3.1,1c0.8,0.6,1.2,1.5,1.4,2.6c0.2,1.1,0.1,2.6-0.2,4.5
		L291.2,167.1z M287,163.9l0.2-1.5c0.2-1,0.2-1.7,0.2-2s-0.2-0.5-0.4-0.5c-0.3,0-0.5,0.1-0.7,0.4c-0.1,0.3-0.3,0.9-0.4,2.1l-0.2,1.5
		H287z"/>
	<path class="st0" d="M298.9,156.8l-0.4,1.9c0.5-0.8,1-1.3,1.6-1.7c0.6-0.4,1.2-0.6,1.8-0.6c1.2,0,2.1,0.8,2.6,2.3
		c0.5-0.8,1-1.3,1.6-1.7c0.6-0.4,1.1-0.6,1.7-0.6c0.8,0,1.4,0.3,1.9,0.8c0.4,0.5,0.7,1.1,0.7,1.8c0,0.7-0.1,1.9-0.3,3.5l-2.2,14.2
		h-4.5l2.1-13c0.3-1.7,0.4-2.8,0.4-3.2c0-0.4-0.2-0.6-0.5-0.6s-0.6,0.2-0.7,0.6c-0.2,0.4-0.4,1.5-0.6,3.2l-2.1,13h-4.5l2-12.7
		c0.3-2,0.5-3.1,0.4-3.5c0-0.4-0.2-0.6-0.5-0.6c-0.2,0-0.4,0.1-0.6,0.3c-0.2,0.2-0.3,0.5-0.4,0.8s-0.2,0.9-0.3,1.9l-2.2,13.8h-4.5
		l3.2-20h4.3V156.8z"/>
	<path class="st0" d="M322.4,156.8l-3.6,14.4c-0.6,2.3-1,3.8-1.3,4.7c-0.3,0.8-0.6,1.5-1,2.1c-0.4,0.5-0.9,0.9-1.6,1.2
		c-0.6,0.3-1.6,0.4-2.9,0.4h-2.8l0.5-3.2c0.7,0,1.2,0,1.4-0.1c0.2-0.1,0.4-0.3,0.4-0.6c0-0.2,0-0.9,0-2.1l0.1-16.7h4.2l-0.6,13.5
		l2.9-13.5L322.4,156.8L322.4,156.8z"/>
</g>
</svg>
